<svg version="1.1" id="レイヤー_1" xmlns="http://www.w3.org/2000/svg" x="0" y="0" viewBox="0 0 364 193" xml:space="preserve"><style>.st0{fill:#101785}.st1{fill:#fff}.st2{fill:none}</style><path class="st0" d="M39.01 171.14c-7.55 0-14.5-2.75-20.19-8.01C7.08 152.28 2.57 132.5 2.28 118.86c-.6-27.94 4.26-56.44 14.06-82.42a8.386 8.386 0 0110.81-4.89c4.33 1.64 6.52 6.48 4.89 10.81-9.05 24-13.54 50.33-12.98 76.14.23 10.81 3.82 25.53 11.15 32.31 2.84 2.62 5.9 3.72 9.65 3.53 10.26-.58 19.24-7.98 26.78-22.03-15-21.67-15.15-61.73-.16-84.77 1.85-2.85 4.39-6.74 8.48-9.46 7.26-4.81 12.86-2.88 15.55-1.31 9.38 5.48 10.2 22.48 9.25 35.78-1.26 17.55-4.93 34.67-10.9 50.89-.79 2.14-1.6 4.22-2.44 6.22 2.52 2.23 4.98 3.55 7.36 3.92 3.67.58 8.03-.99 13.01-4.64 21.59-15.85 29.58-44.74 36.47-75.45 1.02-4.52 5.5-7.37 10.02-6.35 4.52 1.01 7.36 5.5 6.35 10.02-7.62 33.94-16.64 66.01-42.91 85.3-8.71 6.39-17.31 8.97-25.53 7.7-4.39-.68-8.53-2.41-12.48-5.2-10.11 16.51-22.8 25.28-37.89 26.14-.62.02-1.22.04-1.81.04zM82.36 54c-.62.83-1.25 1.78-1.83 2.68-8.93 13.73-10.69 37.76-5.33 54.92 4.2-12.93 6.83-26.45 7.82-40.27.5-6.89.11-13.4-.66-17.33z"/><path class="st1" d="M253.28 172.02c-1.95 0-3.91-.61-5.58-1.88-4.09-3.09-4.9-8.91-1.81-12.99 19.28-25.53 27.57-51.74 24.64-77.89-.29-2.58-.56-4.95-1.03-7.13-2.36-10.99-8.81-25.29-15.34-33.99-4.64-6.18-12.28-13.1-19.82-13.97-3.3-.37-6.39.47-9.42 2.58 7.99 18.67 16.99 54.99-2.33 70.9-8.07 6.64-19.62 7.38-27.49 1.73-4.96-3.56-10.98-10.5-11.46-23.37-.63-16.99 8.74-37.96 18.39-51.54-3.62-3.42-7.99-4.3-11.38-4.35h-.29c-8.26 0-16.97 4.81-21.25 11.77-11.5 18.67-11.18 45.26.8 67.73 2.41 4.52.7 10.14-3.82 12.55s-10.14.7-12.55-3.82c-15.02-28.17-15.11-62-.22-86.19 7.83-12.71 22.7-20.97 37.6-20.6 9.32.13 17.68 3.52 24.01 9.56 6.61-4.41 14-6.25 21.57-5.39 16.35 1.9 28.17 15.5 32.5 21.27 8.2 10.93 15.69 27.5 18.64 41.23.66 3.08.99 6.03 1.31 8.87 3.49 31.12-6.03 61.79-28.27 91.23a9.228 9.228 0 01-7.4 3.69zM211.64 44.23c-5.32 9.81-9.81 21.82-9.46 31.08.24 6.49 2.87 8.37 3.73 8.99.9.64 3.27.35 4.89-.98 6.78-5.59 5.41-23.72.84-39.09z"/><path class="st2" d="M206.92 30.1c.1-.08.19-.15.3-.21-.05-.06-.09-.12-.13-.18-.05.14-.11.26-.17.39zM222.06 77.77zM226.53 19.51c0 .08-.01.16-.03.25.11-.04.23-.06.35-.07-.12-.04-.22-.1-.32-.18zM145.89 73.33c0 .01-.01.03-.01.04.01-.01.03-.01.04-.02-.02-.01-.03-.01-.03-.02z"/><path class="st0" d="M289.4 82.19c-.1-1.43-.22-2.86-.37-4.29-.95-.44-2.16-.29-2.9.45-.47.47-.74 1.12-.74 1.79 0 .25.05.49.12.72-.63-.3-1.44-.2-1.95.3a1.688 1.688 0 001.2 2.88c.44 0 .87-.18 1.19-.49.31-.32.49-.75.49-1.2 0-.06-.01-.12-.02-.18.43.32.96.5 1.5.5.54.01 1.05-.17 1.48-.48zM246.04 29.63c-.2-.2-.45-.35-.71-.47.31.24.62.48.92.73-.06-.09-.13-.18-.21-.26zM261.59 43.13c0 .52.21 1.03.57 1.39.37.37.88.58 1.4.58.51 0 1.02-.21 1.39-.58.36-.37.57-.87.57-1.39 0-.52-.21-1.03-.57-1.39-.74-.74-2.05-.74-2.79 0-.36.36-.57.87-.57 1.39zM262.92 32.37c0 .67.27 1.32.74 1.79.48.47 1.13.74 1.79.74.67 0 1.32-.27 1.79-.74s.74-1.12.74-1.79c0-.66-.27-1.32-.74-1.79-.94-.94-2.63-.94-3.58 0-.47.47-.74 1.13-.74 1.79zM275.58 77.3c0 .67.27 1.32.74 1.79s1.12.74 1.79.74 1.32-.27 1.79-.74.74-1.12.74-1.79c0-.66-.27-1.32-.74-1.79-.27-.27-.6-.45-.95-.56.14-.25.22-.52.22-.81 0-.45-.18-.88-.5-1.2-.63-.62-1.75-.63-2.39 0-.31.32-.49.75-.49 1.2 0 .44.18.87.5 1.19.04.04.08.07.13.1-.03.03-.07.05-.1.08-.47.47-.74 1.12-.74 1.79z"/><path class="st0" d="M259.83 27.07c-.2.2-.34.46-.42.73-.64-.4-1.56-.34-2.11.21-.32.32-.5.75-.5 1.2 0 .44.18.88.5 1.19.31.31.75.5 1.19.5.45 0 .88-.19 1.19-.5.21-.2.35-.46.43-.73.25.17.54.26.84.27.08.12.16.23.26.34.37.37.88.58 1.4.58.51 0 1.02-.21 1.39-.58a1.952 1.952 0 000-2.78c-.48-.48-1.2-.64-1.86-.49-.12-.1-.24-.19-.38-.25.07.01.14.02.21.02a1.688 1.688 0 001.69-1.69c0-.44-.18-.87-.49-1.19-.15-.15-.34-.27-.54-.34.38-.45.61-1.03.61-1.62 0-.67-.27-1.32-.74-1.79-.95-.95-2.64-.94-3.58 0-.47.47-.74 1.12-.74 1.79 0 .47.14.93.39 1.33-.62-.27-1.41-.17-1.91.31-.31.32-.49.76-.49 1.2 0 .44.18.88.5 1.19.31.32.74.5 1.19.5.44 0 .88-.18 1.19-.5.32-.31.5-.75.5-1.19 0-.24-.06-.48-.16-.7.31.19.67.31 1.04.35a1.663 1.663 0 00.35 1.85c.14.14.3.25.48.33-.51-.06-1.06.09-1.43.46zM277.86 51.74c-.31.32-.49.75-.49 1.2 0 .44.18.88.5 1.19.31.31.75.5 1.19.5.44 0 .88-.18 1.19-.5.32-.32.5-.75.5-1.19 0-.45-.18-.88-.5-1.2-.63-.63-1.76-.62-2.39 0z"/><path class="st0" d="M263.15 53.75l.66 1.47c.29.22.65.35 1.02.35.41 0 .82-.16 1.13-.44.13.32.31.62.56.86.09.09.18.16.28.23-.15.09-.3.2-.43.33a2.58 2.58 0 00-.74 1.79 2.544 2.544 0 002.53 2.54c.67 0 1.32-.28 1.79-.75.43-.43.69-1.02.72-1.64.12.37.32.71.6.98.22.22.47.38.75.51-.17.08-.33.18-.47.31-.32.31-.5.75-.5 1.19 0 .45.18.88.5 1.19.18.19.41.32.65.4-.05.2-.09.41-.09.63 0 .66.27 1.31.74 1.78a2.512 2.512 0 003.58 0c.47-.47.74-1.12.74-1.78 0-.62-.24-1.22-.65-1.68.05 0 .09.01.14.01.44 0 .88-.18 1.19-.49.32-.32.5-.76.5-1.2 0-.27-.08-.54-.2-.78.38.21.8.34 1.24.34.49 0 .98-.15 1.39-.42.07.13.15.25.26.35.23.22.52.38.82.45-.25.3-.4.68-.4 1.07 0 .45.18.88.5 1.2l.01.01c-.04.17-.06.34-.06.51 0 .67.27 1.32.74 1.79s1.12.74 1.79.74c.66 0 1.32-.27 1.79-.74.18-.18.32-.39.43-.61-.29-1.1-.61-2.22-.95-3.34-.33-.18-.69-.28-1.06-.31a1.587 1.587 0 00-1.14-.86c.25-.31.4-.69.4-1.09 0-.44-.18-.87-.49-1.19-.4-.4-1-.54-1.55-.44-.08-.54-.32-1.04-.7-1.42-.95-.95-2.64-.95-3.58 0-.47.47-.74 1.12-.74 1.79 0 .5.16 1.01.45 1.43-.61-.24-1.36-.12-1.84.35-.31.32-.49.75-.49 1.19 0 .33.1.66.28.93-.28-.06-.56-.08-.85-.06-.06-.35-.22-.68-.46-.93-.07-.07-.15-.13-.23-.18.42-.12.82-.33 1.14-.64.47-.47.74-1.12.74-1.79 0-.66-.27-1.32-.74-1.79-.95-.94-2.64-.94-3.58 0a2.63 2.63 0 00-.73 1.65c-.12-.36-.32-.71-.59-.99-.08-.08-.18-.15-.28-.22.15-.1.3-.21.43-.34.47-.47.74-1.12.74-1.79 0-.66-.27-1.31-.74-1.79-.94-.94-2.64-.94-3.58 0-.14.14-.25.3-.35.46-.05-.06-.09-.12-.15-.18-.62-.63-1.75-.63-2.39 0-.28.27-.45.65-.48 1.05zM250.19 30.72c.32-.32.5-.75.5-1.2 0-.44-.18-.88-.5-1.19-.62-.63-1.76-.63-2.38 0-.32.31-.5.75-.5 1.19 0 .45.18.88.5 1.2a1.688 1.688 0 002.38 0zM236.35 5.72c.08.24.21.46.39.63.32.32.75.5 1.2.5.44 0 .88-.18 1.19-.5.05-.05.1-.11.14-.17-.91-.18-1.84-.34-2.79-.45-.05-.01-.09-.01-.13-.01zM280.85 76.67c0 .44.18.88.5 1.19.15.16.34.28.54.37-.28.3-.43.71-.43 1.11 0 .45.18.88.5 1.2.31.31.75.49 1.19.49.44 0 .88-.18 1.19-.49.32-.32.5-.75.5-1.2 0-.44-.18-.88-.5-1.19-.16-.16-.35-.28-.56-.36.16-.17.27-.37.35-.58.21.05.41.09.63.09.66 0 1.31-.27 1.78-.74s.75-1.12.75-1.79c0-.66-.27-1.32-.75-1.79-.94-.94-2.63-.94-3.58 0-.47.47-.74 1.13-.74 1.79 0 .09.02.18.03.26-.33.06-.65.2-.9.45-.32.31-.5.75-.5 1.19zM232.62 73.89c-.31.32-.5.75-.5 1.2 0 .44.19.88.5 1.19.23.23.53.39.86.46.24-1.58.42-3.2.52-4.83-.19.28-.29.61-.29.94 0 .2.04.4.11.58-.44-.01-.88.15-1.2.46zM257.69 16.16c-.3.32-.48.74-.48 1.18 0 .45.18.88.5 1.2.31.31.75.49 1.19.49.44 0 .87-.18 1.19-.49.21-.21.36-.48.43-.76.07.04.15.09.23.12-1.03-.94-2.13-1.89-3.29-2.82-.01.07-.02.13-.02.2 0 .31.1.62.25.88zM264.82 22.35c.1 0 .21-.01.31-.03-.6-.67-1.25-1.36-1.95-2.06-.03.13-.06.27-.06.41 0 .45.18.88.5 1.2.32.3.76.48 1.2.48zM266.3 35.85c0 .44.18.88.49 1.2.32.31.75.49 1.19.49.45 0 .88-.18 1.2-.49.31-.32.49-.75.49-1.2 0-.44-.18-.87-.49-1.19-.64-.63-1.75-.63-2.39 0-.31.31-.49.75-.49 1.19zM260.78 34.66c-.31.31-.49.75-.49 1.19 0 .44.18.88.49 1.19.31.32.75.5 1.19.5a1.688 1.688 0 001.2-2.88c-.64-.63-1.77-.63-2.39 0zM279.38 47.03c.35 0 .69-.12.97-.32-.45-1-.92-2-1.39-2.98-.29.07-.57.2-.78.42-.31.31-.49.75-.49 1.19 0 .45.18.88.49 1.2.32.31.75.49 1.2.49zM253.19 29.91c-.32.31-.5.75-.5 1.19a1.688 1.688 0 002.88 1.2c.32-.32.5-.75.5-1.2 0-.44-.18-.87-.5-1.19-.63-.63-1.76-.63-2.38 0zM266.12 60.89c.29.77.56 1.54.83 2.3.12-.24.19-.5.19-.76 0-.45-.18-.88-.49-1.19a1.58 1.58 0 00-.53-.35zM241.16 26.11c-.07.08-.14.16-.2.25.98.51 1.94 1.09 2.88 1.73.13-.24.21-.51.21-.78 0-.45-.19-.88-.5-1.2-.62-.62-1.75-.63-2.39 0zM240.04 10.86c0 .44.18.87.49 1.19.17.17.37.29.59.38.07.56.31 1.09.71 1.49.24.24.52.42.83.55-.05.16-.09.33-.09.51a1.69 1.69 0 001.68 1.69c.45 0 .88-.18 1.2-.5.31-.31.49-.75.49-1.19 0-.42-.17-.84-.46-1.15.42-.46.67-1.07.67-1.7 0-.67-.27-1.32-.74-1.79-.63-.63-1.59-.83-2.45-.62-.02-.02-.03-.04-.04-.05-.63-.63-1.76-.63-2.39 0-.31.31-.49.74-.49 1.19zM272.17 84.19a1.688 1.688 0 002.88-1.19c0-.3-.08-.58-.23-.84.08-.24.13-.49.13-.74 0-.67-.27-1.32-.75-1.79-.38-.38-.88-.6-1.4-.68.06-.05.12-.09.18-.14.31-.32.49-.75.49-1.19 0-.45-.18-.88-.5-1.2-.47-.48-1.23-.59-1.84-.35-.11-.2-.24-.4-.41-.56-.21-.21-.46-.36-.72-.48.19 1.34.36 2.74.52 4.22.07-.05.14-.1.2-.16.03-.03.06-.07.09-.11.13.09.28.16.43.22-.22.11-.44.25-.62.43-.02.02-.04.05-.06.07.13 1.24.24 2.48.32 3.71.31.24.67.41 1.06.48.07.11.14.21.23.3zM271.78 38.7c0 .67.27 1.32.74 1.79s1.12.74 1.79.74c.67 0 1.32-.27 1.79-.74.31-.31.52-.71.64-1.13-.55-1.03-1.1-2.05-1.67-3.04-.87-.25-1.89-.06-2.55.59-.47.47-.74 1.12-.74 1.79zM278.43 43.2c.09 0 .17-.01.26-.03-.55-1.12-1.11-2.22-1.68-3.3a2 2 0 00-.55 1.36c0 .52.21 1.03.57 1.39.37.37.88.58 1.4.58zM265.66 39.65c0 .44.19.88.5 1.19.31.32.75.5 1.19.5.45 0 .88-.18 1.19-.5.32-.31.5-.75.5-1.19 0-.44-.18-.88-.49-1.2-.63-.62-1.75-.63-2.39.01-.32.31-.5.75-.5 1.19zM265.77 27.1c.45 0 .88-.18 1.19-.5.32-.31.5-.75.5-1.19 0-.16-.03-.31-.08-.47-.27-.33-.54-.66-.84-1.01-.63-.31-1.46-.22-1.96.29-.32.31-.5.74-.5 1.19 0 .44.18.88.5 1.19.31.32.75.5 1.19.5zM247 11.17c0 .45.18.88.49 1.2.32.31.75.49 1.19.49.45 0 .88-.18 1.2-.49.31-.32.49-.75.49-1.2 0-.37-.14-.74-.36-1.04-.39-.21-.78-.41-1.18-.61-.49-.04-.99.11-1.34.46-.31.31-.49.75-.49 1.19zM233.07 7.06c0 .44.18.88.5 1.19.31.32.75.5 1.19.5.44 0 .88-.18 1.2-.5.31-.31.49-.75.49-1.19 0-.44-.18-.88-.49-1.2-.08-.08-.17-.14-.26-.2-.55-.05-1.1-.09-1.66-.11-.18.08-.34.18-.48.32-.31.31-.49.74-.49 1.19zM236.1 8.71c-.31.32-.49.75-.49 1.2 0 .44.18.88.49 1.19.32.31.75.49 1.19.49.45 0 .88-.18 1.2-.49.31-.31.49-.75.49-1.19 0-.45-.18-.88-.49-1.2-.63-.62-1.76-.63-2.39 0zM245.41 16.87a1.69 1.69 0 001.69 1.68c.45 0 .88-.18 1.2-.49.31-.32.49-.75.49-1.19 0-.45-.18-.88-.49-1.2-.63-.63-1.76-.62-2.39 0-.32.32-.5.75-.5 1.2zM247.98 23.76c.31-.32.49-.75.49-1.2 0-.44-.18-.88-.49-1.19-.63-.63-1.76-.63-2.39 0-.31.31-.49.75-.49 1.19 0 .44.18.88.49 1.2.32.31.75.49 1.2.49.44 0 .87-.18 1.19-.49zM244.46 26.36c0 .44.18.88.5 1.19.32.32.75.5 1.19.5a1.672 1.672 0 001.61-1.19c.02.02.03.04.05.06.31.31.75.49 1.19.49.44 0 .88-.18 1.19-.49.32-.31.5-.75.5-1.19 0-.45-.18-.88-.5-1.2-.63-.63-1.76-.63-2.38 0-.19.2-.33.43-.41.69-.02-.02-.03-.04-.05-.06-.63-.62-1.76-.62-2.39.01-.32.31-.5.75-.5 1.19zM254.77 17.89c-.32.31-.5.75-.5 1.19 0 .44.18.88.5 1.2a1.688 1.688 0 002.88-1.2c0-.44-.18-.87-.49-1.19-.64-.63-1.77-.63-2.39 0z"/><path class="st0" d="M254.16 38.13c.53.71 1.06 1.47 1.59 2.25.41-.03.8-.19 1.1-.49.31-.31.49-.75.49-1.19 0-.23-.05-.45-.13-.65.21-.38.34-.81.34-1.25 0-.67-.27-1.32-.74-1.79 0 0-.01-.01-.02-.01.04 0 .08.01.13.01.45 0 .88-.18 1.19-.5.32-.31.5-.75.5-1.19 0-.44-.18-.88-.5-1.19-.63-.63-1.76-.63-2.38 0-.32.31-.5.75-.5 1.19 0 .38.14.76.39 1.06-.84-.19-1.78.02-2.39.63-.07.07-.12.14-.18.22-.23-.05-.47-.06-.7-.02.02-.02.05-.03.07-.06.31-.32.49-.75.49-1.2 0-.44-.18-.88-.49-1.19-.63-.63-1.76-.63-2.39 0-.1.1-.17.21-.24.32 1.63 1.65 3.11 3.38 4.37 5.05zM257.23 40.28c0 .67.27 1.32.74 1.79s1.12.74 1.79.74c.66 0 1.32-.27 1.79-.74s.74-1.12.74-1.79c0-.66-.27-1.32-.74-1.79-.95-.94-2.64-.94-3.58 0-.47.47-.74 1.13-.74 1.79zM263.04 53.51c.33-.44.52-.97.52-1.52 0-.67-.27-1.32-.74-1.79-.45-.45-1.08-.68-1.72-.7.66 1.31 1.31 2.65 1.94 4.01zM263.87 48.19c0 .67.27 1.32.74 1.79s1.13.74 1.79.74c.67 0 1.32-.27 1.79-.74s.74-1.12.74-1.79c0-.66-.27-1.32-.74-1.79-.03-.03-.06-.04-.08-.07.28-.08.55-.22.75-.43.21-.21.36-.47.43-.75.02.03.04.06.07.08.47.48 1.12.75 1.79.75.09 0 .17-.02.26-.03.08.54.32 1.04.7 1.43.18.18.39.32.62.44-.54-.09-1.12.05-1.51.44-.31.32-.49.75-.49 1.2 0 .44.18.87.49 1.19.32.31.75.49 1.19.49.45 0 .88-.18 1.2-.49.31-.32.49-.75.49-1.19 0-.45-.18-.88-.49-1.2-.08-.07-.16-.14-.25-.19.18.04.35.06.54.06.23 0 .46-.05.69-.11-.17.35-.28.73-.28 1.12 0 .66.27 1.32.74 1.79.48.47 1.13.74 1.8.74.66 0 1.31-.27 1.78-.74a2.512 2.512 0 000-3.58c-.64-.64-1.63-.83-2.49-.6.18-.36.29-.75.29-1.16 0-.66-.27-1.31-.74-1.79-.54-.53-1.3-.75-2.04-.68-.07-.55-.31-1.07-.71-1.46-.94-.95-2.64-.95-3.58 0-.44.44-.7 1.05-.73 1.68-.65-.44-1.6-.38-2.15.18a1.659 1.659 0 00-.17 2.18c-.63.02-1.25.25-1.7.7-.47.47-.74 1.13-.74 1.79zM267.55 65c.48 1.48.9 2.93 1.28 4.35.14.02.28.04.43.04.67 0 1.32-.27 1.79-.74s.74-1.12.74-1.79c0-.67-.27-1.32-.74-1.79-.92-.92-2.55-.93-3.5-.07zM260.97 49.26a2.59 2.59 0 00-.48-1.02c.05-.04.1-.07.14-.12.32-.32.5-.75.5-1.19 0-.45-.18-.88-.49-1.2-.46-.45-1.18-.58-1.79-.37.73 1.26 1.43 2.56 2.12 3.9zM284.27 56.5c-.33-.95-.68-1.9-1.04-2.85-.3.32-.48.74-.48 1.18 0 .44.18.88.49 1.19.28.28.65.44 1.03.48zM282.68 52.21c-.41-1.03-.83-2.06-1.26-3.08-.26.07-.51.2-.7.4-.31.31-.49.75-.49 1.19 0 .44.18.88.5 1.2.31.31.75.49 1.19.49.26 0 .52-.07.76-.2zM271.36 73.51c0 .44.18.87.49 1.19.32.31.75.49 1.2.49a1.69 1.69 0 001.69-1.68c0-.45-.18-.88-.5-1.2-.63-.63-1.76-.63-2.39 0-.31.31-.49.75-.49 1.2zM286.55 71.92a1.688 1.688 0 001.68 1.69c.1 0 .2-.01.3-.03-.14-1.09-.3-2.18-.5-3.3-.37.04-.72.19-.99.45-.31.31-.49.75-.49 1.19zM288.62 77.54c.12.12.26.21.4.29-.03-.24-.04-.48-.07-.72-.08-.67-.15-1.35-.23-2.03-.03.03-.07.05-.1.08a1.688 1.688 0 000 2.38zM267.74 31.03c.32.32.75.5 1.2.5.11 0 .22-.01.33-.04-.01.08-.02.16-.02.25 0 .66.27 1.32.74 1.79s1.13.74 1.79.74c.26 0 .51-.05.75-.13.07.13.16.26.27.37.32.32.75.5 1.2.5.09 0 .19-.01.28-.03a90.706 90.706 0 00-3.53-5.53c-.06.02-.11.05-.16.08-.06-.33-.22-.65-.46-.88-.64-.63-1.76-.63-2.39 0-.31.31-.49.75-.49 1.19 0 .44.18.88.49 1.19zM272.37 52.58c-.26.26-.41.62-.41.99s.15.73.41.99c.26.27.62.42.99.42s.73-.15.99-.41c.27-.27.42-.63.42-1s-.15-.73-.41-.99c-.53-.53-1.46-.53-1.99 0zM249.21 20.35a1.688 1.688 0 002 1.65c-.2.37-.31.78-.31 1.2 0 .61.24 1.21.65 1.67-.43.47-.68 1.09-.68 1.72 0 .67.27 1.32.74 1.79s1.12.74 1.79.74c.67 0 1.32-.27 1.79-.74s.74-1.12.74-1.79c0-.61-.24-1.22-.65-1.68.43-.46.68-1.08.68-1.71 0-.67-.27-1.32-.74-1.8-.7-.7-1.81-.87-2.72-.54.05-.17.09-.34.09-.51 0-.45-.18-.88-.5-1.2-.18-.18-.41-.3-.65-.38.24-.08.47-.21.65-.39.32-.32.5-.75.5-1.2 0-.24-.06-.47-.16-.69.39.24.85.38 1.32.38.66 0 1.31-.27 1.79-.74.47-.47.74-1.13.74-1.79 0-.06-.01-.12-.02-.19-1.02-.76-2.09-1.51-3.2-2.22-.41.11-.8.31-1.11.61-.48.47-.75 1.12-.75 1.79 0 .46.14.93.39 1.32-.62-.27-1.4-.16-1.9.33-.31.31-.49.75-.49 1.19 0 .45.18.88.5 1.2.18.18.4.31.64.39-.24.08-.47.2-.65.38-.3.33-.48.76-.48 1.21zM280.34 65.04c.32-.32.5-.75.5-1.2 0-.44-.18-.87-.5-1.19-.63-.63-1.75-.63-2.39 0-.31.32-.49.75-.49 1.19 0 .45.18.88.5 1.19.31.32.74.5 1.19.5.45 0 .88-.18 1.19-.49zM242.76 8.96c.17-.16.27-.39.27-.62 0-.22-.1-.45-.26-.61-.32-.33-.92-.33-1.24 0a.89.89 0 00-.26.61c0 .23.1.46.26.62a.854.854 0 001.23 0zM239.03 6.72c-.16.17-.26.39-.26.62 0 .23.1.46.26.62a.87.87 0 001.49-.62c0-.23-.09-.45-.25-.62a.92.92 0 00-1.24 0z"/><path class="st0" d="M276.77 67.37c-.97-.7-2.44-.63-3.3.22-.47.47-.74 1.12-.74 1.79 0 .67.27 1.32.74 1.79s1.13.74 1.79.74c.36 0 .72-.09 1.04-.23.08.01.15.02.23.02.44 0 .88-.18 1.19-.49.32-.32.5-.75.5-1.2.42-.02.83-.19 1.12-.48.13-.13.23-.28.31-.44.05.06.09.13.15.18.38.38.88.62 1.41.7-.3.07-.59.21-.81.43a1.679 1.679 0 000 2.39c.31.31.75.49 1.19.49a1.69 1.69 0 001.69-1.68c0-.45-.18-.88-.5-1.2a1.68 1.68 0 00-.81-.43c.53-.08 1.03-.32 1.41-.7.37-.37.61-.85.7-1.36.08.28.23.55.43.76.31.32.75.5 1.19.5.45 0 .88-.18 1.2-.5.31-.31.49-.75.49-1.19 0-.44-.18-.88-.49-1.19-.63-.63-1.76-.63-2.39 0-.21.21-.36.47-.43.75-.09-.51-.33-.99-.7-1.35-.94-.94-2.63-.94-3.58 0-.35.35-.58.79-.68 1.27-.65-.44-1.6-.38-2.16.18-.07.08-.13.15-.19.23zM247.45 9.12c.15 0 .29-.03.43-.06-.62-.29-1.26-.57-1.9-.83.08.14.17.28.28.39.31.32.75.5 1.19.5zM288.45 86.37c.23 0 .46-.05.67-.14.15.11.31.2.49.25-.03-1.05-.07-2.09-.13-3.14-.65-.48-1.64-.43-2.21.14-.31.31-.49.75-.49 1.19 0 .44.18.88.49 1.19.31.33.74.51 1.18.51zM229.78 68.83c-.32.32-.5.75-.5 1.19 0 .45.18.88.5 1.2.31.31.75.49 1.19.49.45 0 .88-.18 1.2-.49.31-.32.49-.75.49-1.2 0-.44-.18-.88-.5-1.19-.62-.63-1.75-.63-2.38 0zM257.43 160.21c0-.66-.27-1.32-.74-1.79-.3-.3-.69-.5-1.1-.6.03-.15.05-.31.05-.46 0-.67-.27-1.32-.74-1.79-.94-.95-2.63-.95-3.58 0-.47.47-.74 1.12-.74 1.79 0 .66.27 1.31.74 1.79.3.3.69.51 1.09.63a2.544 2.544 0 00.7 2.23c.38.39.89.63 1.42.71-.27.07-.52.2-.71.4-.32.32-.5.75-.5 1.2a1.69 1.69 0 003.38 0c0-.45-.18-.88-.49-1.2-.22-.22-.5-.35-.79-.42.48-.1.92-.34 1.27-.69.47-.48.74-1.13.74-1.8zM286.02 117.79c0 .02.01.04.01.06.11-.42.21-.83.31-1.25-.2.37-.32.78-.32 1.19zM263.56 136.22c.51 0 1.02-.21 1.39-.58.36-.37.57-.87.57-1.39 0-.52-.21-1.03-.57-1.39-.74-.74-2.05-.74-2.79 0-.36.36-.57.87-.57 1.39 0 .52.21 1.03.57 1.39.37.37.88.58 1.4.58zM277.36 114c.47.47 1.12.74 1.79.74.66 0 1.32-.27 1.79-.74s.74-1.12.74-1.79c0-.66-.27-1.32-.74-1.79-.81-.8-2.16-.91-3.13-.34.05-.16.09-.33.09-.51 0-.44-.18-.88-.5-1.2-.63-.62-1.75-.62-2.38.01-.32.31-.5.75-.5 1.19 0 .44.18.88.5 1.19a1.673 1.673 0 001.86.36c-.16.34-.26.72-.26 1.1 0 .66.27 1.31.74 1.78zM258.07 170.43c-.95-.95-2.63-.95-3.58 0-.42.42-.66.98-.72 1.56 1.56-.08 3.09-.55 4.44-1.39-.04-.05-.08-.11-.14-.17zM275.37 93.96c.47.47 1.13.74 1.79.74.67 0 1.32-.27 1.79-.74s.74-1.13.74-1.79c0-.67-.27-1.32-.74-1.79-.94-.95-2.64-.94-3.58 0-.47.47-.74 1.12-.74 1.79 0 .67.27 1.32.74 1.79zM274.63 88.69c0-.67-.27-1.32-.74-1.79-.73-.74-1.91-.9-2.85-.49.05 1.53.06 3.06.04 4.59.32.14.67.22 1.02.22.66 0 1.32-.27 1.79-.74s.74-1.13.74-1.79zM281.08 125.67c.31.29.73.46 1.15.46.45 0 .88-.18 1.2-.5.31-.31.49-.75.49-1.19 0-.44-.18-.88-.49-1.19-.08-.08-.17-.15-.26-.21-.03-.62-.29-1.22-.73-1.66-.94-.94-2.63-.94-3.58.01-.47.47-.74 1.12-.74 1.79 0 .54.19 1.08.52 1.51-.51-.06-1.04.09-1.4.46a1.688 1.688 0 000 2.38c.32.32.75.5 1.2.5.44 0 .87-.18 1.19-.5.32-.32.5-.75.5-1.19 0-.26-.07-.52-.19-.75.23.07.47.12.71.12.14 0 .28-.02.43-.04zM272.93 111.21c0-.57-.21-1.13-.56-1.57h.04c.52 0 1.03-.21 1.4-.58.36-.36.57-.87.57-1.39 0-.52-.21-1.03-.57-1.39-.74-.74-2.05-.74-2.79 0-.36.36-.57.87-.57 1.39 0 .38.12.76.32 1.08-.46-.06-.94-.01-1.38.16.18-.27.27-.6.27-.92 0-.32-.1-.63-.26-.9-.34 1.79-.74 3.59-1.19 5.38.11.19.24.38.39.53.13.13.27.24.42.34-.31.06-.6.21-.82.43-.32.31-.5.75-.5 1.19 0 .45.18.88.5 1.2a1.688 1.688 0 002.88-1.2c0-.44-.18-.87-.5-1.19-.01-.01-.03-.02-.04-.04.62-.04 1.21-.3 1.64-.74.48-.46.75-1.11.75-1.78zM271.78 125.39c.26 0 .51-.05.75-.13.07.13.16.26.27.37.32.32.75.5 1.2.5a1.69 1.69 0 001.19-2.88c-.24-.24-.56-.39-.89-.44-.01-.65-.28-1.28-.73-1.74-.39-.39-.91-.61-1.45-.68.32-.07.62-.22.85-.45.32-.32.5-.75.5-1.19 0-.45-.18-.88-.5-1.2-.63-.63-1.75-.63-2.38 0-.32.32-.5.75-.5 1.2a1.673 1.673 0 001.35 1.64c-.3.04-.58.13-.85.26-.06-.33-.22-.65-.46-.88-.64-.63-1.76-.63-2.39 0-.31.31-.49.75-.49 1.19 0 .44.18.88.49 1.19.32.32.75.5 1.2.5.11 0 .22-.01.33-.04-.01.08-.02.16-.02.25 0 .66.27 1.32.74 1.79s1.13.74 1.79.74zM278.63 138.47c-.64-.64-1.63-.83-2.49-.6.18-.36.29-.75.29-1.16 0-.66-.27-1.31-.74-1.79-.54-.53-1.3-.75-2.04-.68-.07-.55-.31-1.07-.71-1.46-.94-.95-2.64-.95-3.58 0-.44.44-.7 1.05-.73 1.68-.65-.44-1.6-.38-2.15.18a1.659 1.659 0 00-.17 2.18c-.63.02-1.25.25-1.7.7-.47.47-.74 1.13-.74 1.79 0 .67.27 1.32.74 1.79s1.13.74 1.79.74c.67 0 1.32-.27 1.79-.74s.74-1.12.74-1.79c0-.66-.27-1.32-.74-1.79-.03-.03-.06-.04-.08-.07.28-.08.55-.22.75-.43.21-.21.36-.47.43-.75.02.03.04.06.07.08.47.48 1.12.75 1.79.75.09 0 .17-.02.26-.03.08.54.32 1.04.7 1.43.18.18.39.32.62.44-.54-.09-1.12.05-1.51.44-.31.32-.49.75-.49 1.2 0 .44.18.87.49 1.19.32.31.75.49 1.19.49.45 0 .88-.18 1.2-.49.31-.32.49-.75.49-1.19 0-.45-.18-.88-.49-1.2-.08-.07-.16-.14-.25-.19.18.04.35.06.54.06.23 0 .46-.05.69-.11-.17.35-.28.73-.28 1.12 0 .66.27 1.32.74 1.79.43.42 1 .67 1.59.72.7-1.42 1.38-2.84 2.02-4.26-.01-.01-.01-.02-.03-.04zM267.24 125.28c.47-.47.74-1.12.74-1.79 0-.66-.27-1.32-.74-1.79-.42-.42-.98-.64-1.56-.69-.52 1.51-1.08 3.03-1.68 4.54.43.3.94.47 1.45.47.67 0 1.32-.27 1.79-.74zM281.38 127.4c-.47.47-.74 1.12-.74 1.79 0 .66.27 1.31.74 1.79.1.1.22.19.33.27.58-1.51 1.13-3.03 1.65-4.54-.71-.05-1.46.18-1.98.69zM263.03 160.3c-.47.47-.74 1.13-.74 1.79 0 .67.27 1.32.74 1.79.18.18.38.31.6.43.98-1.37 1.93-2.74 2.85-4.11-.95-.83-2.55-.8-3.45.1zM262.88 165.37l-.03-.03c-.04-.04-.09-.07-.13-.1-.13-.3-.31-.57-.54-.81-.95-.95-2.63-.94-3.58 0-.47.47-.74 1.12-.74 1.79 0 .66.27 1.32.74 1.79.46.46 1.1.72 1.74.74.11-.13.23-.26.34-.4.75-1 1.48-1.99 2.2-2.98zM246.47 162.09c.67 0 1.32-.27 1.79-.74s.74-1.12.74-1.79c0-.66-.27-1.32-.74-1.79-.61-.61-1.53-.82-2.36-.64l-.02.02a9.141 9.141 0 00-1.65 3.57c.12.23.26.45.45.63.47.47 1.12.74 1.79.74zM247.69 170.15c.47.35.96.65 1.47.9-.13-.35-.32-.68-.58-.94-.46-.46-1.1-.69-1.74-.7.27.26.55.51.85.74zM254.38 151.02c0-.67-.27-1.32-.74-1.79-.45-.45-1.07-.67-1.69-.7-.77 1.18-1.57 2.36-2.39 3.54.04.08.08.15.12.23-.16.05-.31.13-.44.23-.18.26-.37.52-.56.79-.06.18-.1.36-.1.55 0 .44.18.88.49 1.19.32.31.75.49 1.2.49.44 0 .87-.18 1.19-.49a1.705 1.705 0 00.46-1.52c.64-.02 1.27-.28 1.72-.73.47-.47.74-1.12.74-1.79zM287.18 107.78c-.71-.7-1.82-.88-2.73-.54-.06-.04-.13-.07-.19-.1.4-.03.8-.19 1.08-.48.32-.32.5-.75.5-1.2 0-.36-.12-.71-.34-.99.17-.03.33-.08.49-.14-.05.16-.09.32-.09.49 0 .45.19.88.5 1.2.31.31.75.49 1.19.49.28 0 .55-.08.79-.2.14-.9.26-1.8.37-2.7-.39-.37-.96-.51-1.49-.42.2-.37.32-.79.32-1.22 0-.66-.27-1.32-.74-1.79-.95-.94-2.64-.94-3.58.01-.47.47-.74 1.12-.74 1.78 0 .67.27 1.32.74 1.8.06.06.13.11.2.16-.19.08-.37.19-.52.34-.32.31-.5.75-.5 1.19 0 .45.18.88.5 1.2.13.13.28.23.44.31-.41.02-.82.17-1.11.46-.31.31-.49.75-.49 1.19 0 .45.18.88.5 1.19.18.19.41.32.65.4.11.43.33.83.64 1.15.47.47 1.12.74 1.79.74.66 0 1.32-.27 1.79-.74.18-.18.32-.4.44-.62.09-.48.19-.95.27-1.43-.02-.58-.27-1.12-.68-1.53zM279.38 107.36a2.547 2.547 0 002.53-2.54c0-.66-.27-1.32-.74-1.79-.16-.16-.36-.29-.56-.39a1.663 1.663 0 00-.36-1.86c-.63-.63-1.75-.63-2.39 0-.31.32-.49.75-.49 1.2 0 .35.11.69.32.97-.03.03-.07.05-.1.08-.47.47-.74 1.13-.74 1.79a2.544 2.544 0 002.53 2.54zM252.58 171.69c-.05-.29-.16-.57-.37-.78-.52-.53-1.47-.53-1.99 0-.13.13-.24.3-.31.47 1.01.4 2.07.6 3.13.63-.13-.12-.29-.23-.46-.32zM279.06 120.75c.44 0 .88-.18 1.19-.5.2-.19.34-.44.42-.71a2.525 2.525 0 003.51-2.33c0-.66-.27-1.32-.74-1.79-.95-.94-2.64-.94-3.58 0-.47.47-.74 1.12-.74 1.79 0 .07.01.13.02.19-.47-.02-.94.13-1.28.47-.31.31-.49.75-.49 1.19 0 .45.18.88.5 1.19.31.32.74.5 1.19.5zM259.13 155.87c.44 0 .88-.18 1.19-.49.31-.32.49-.75.49-1.2 0-.44-.18-.88-.49-1.19-.64-.63-1.76-.63-2.39 0a1.688 1.688 0 001.2 2.88zM272.52 94.7c0-.44-.18-.88-.49-1.2-.27-.26-.64-.41-1.01-.45-.04 1.11-.1 2.22-.18 3.34.45 0 .87-.18 1.18-.5.32-.31.5-.75.5-1.19zM269.67 126.97c0-.44-.18-.87-.49-1.19-.64-.63-1.75-.63-2.39 0-.31.31-.49.75-.49 1.19 0 .44.18.88.49 1.2.32.31.75.49 1.19.49.45 0 .88-.18 1.2-.49.31-.32.49-.75.49-1.2zM263.17 128.16c.31-.31.49-.74.49-1.19 0-.15-.03-.29-.06-.43-.25.63-.51 1.25-.78 1.88.13-.07.25-.15.35-.26zM288.31 101.59c.18.18.4.31.64.39.26-2.3.45-4.6.56-6.9-.76-.09-1.57.13-2.12.68-.47.47-.74 1.12-.74 1.79 0 .66.27 1.32.74 1.79.17.16.36.29.55.4-.09.21-.14.43-.14.65.01.45.19.88.51 1.2zM278.87 138.07c.46-1.02.9-2.03 1.33-3.05-.64-.34-1.5-.26-2.02.26-.31.31-.49.75-.49 1.19 0 .45.18.88.49 1.2.2.18.44.32.69.4zM257.86 148.59a1.69 1.69 0 001.69-1.68c0-.45-.18-.88-.5-1.2-.63-.63-1.75-.63-2.39 0-.31.32-.49.75-.49 1.2a1.69 1.69 0 001.69 1.68zM272.34 103.8c.17-.17.3-.37.39-.6.38.22.82.36 1.27.36.66 0 1.31-.27 1.79-.74.47-.48.74-1.13.74-1.79 0-.67-.27-1.32-.75-1.79-.94-.95-2.63-.94-3.57 0-.47.46-.72 1.08-.73 1.73a1.81 1.81 0 00-1.12.16c-.11.9-.24 1.79-.38 2.69.31.3.73.48 1.17.48.45 0 .88-.19 1.19-.5zM283.56 112.81c-.31.31-.49.75-.49 1.19 0 .44.18.88.49 1.19.32.32.75.5 1.2.5a1.69 1.69 0 001.19-2.88c-.63-.63-1.76-.63-2.39 0zM274.31 132.35c.67 0 1.32-.27 1.79-.74s.74-1.13.74-1.79c0-.67-.27-1.32-.74-1.79-.94-.94-2.63-.94-3.58 0-.47.47-.74 1.12-.74 1.79 0 .67.27 1.32.74 1.79s1.12.74 1.79.74zM278.43 134.32c.51 0 1.02-.21 1.39-.58.36-.36.57-.87.57-1.39 0-.52-.21-1.03-.57-1.39-.74-.73-2.05-.73-2.79 0-.36.36-.57.87-.57 1.39 0 .52.21 1.03.57 1.39.37.37.88.58 1.4.58zM274.31 116.6c.52 0 1.03-.21 1.39-.58.37-.36.58-.87.58-1.39 0-.52-.21-1.03-.58-1.39-.73-.73-2.05-.73-2.78 0-.36.36-.57.87-.57 1.39 0 .52.21 1.03.57 1.39.37.37.88.58 1.39.58zM267.35 132.46c.45 0 .88-.18 1.19-.5.32-.31.5-.75.5-1.19 0-.44-.18-.88-.49-1.2-.63-.62-1.75-.63-2.39.01-.32.31-.5.75-.5 1.19 0 .44.19.88.5 1.19.31.32.75.5 1.19.5zM266.96 117.72c.32-.31.5-.75.5-1.19 0-.23-.05-.47-.15-.68-.2.7-.41 1.4-.63 2.1.1-.06.2-.14.28-.23zM270.68 98.24c-.07.69-.14 1.38-.22 2.07.31-.31.49-.74.49-1.17-.01-.32-.1-.63-.27-.9zM275.58 98.28a1.69 1.69 0 001.69-1.68c0-.45-.18-.88-.5-1.2-.63-.63-1.75-.63-2.39 0-.31.32-.49.75-.49 1.2a1.69 1.69 0 001.69 1.68zM262.29 131.4c0-.39-.11-.78-.28-1.13-.54 1.2-1.1 2.39-1.68 3.59.46-.11.89-.33 1.22-.67.47-.47.74-1.12.74-1.79zM267.46 156.19c-.47.47-.74 1.12-.74 1.79 0 .46.14.91.37 1.3.83-1.26 1.64-2.51 2.42-3.77-.74-.07-1.51.15-2.05.68zM245.33 164.81c-.32-.32-.75-.49-1.19-.53.19 1.15.6 2.27 1.22 3.28.35-.37.55-.86.55-1.35 0-.52-.21-1.03-.58-1.4zM252.8 148.17c.66 0 1.32-.27 1.79-.74s.74-1.12.74-1.79c0-.58-.21-1.13-.57-1.58-.81 1.35-1.65 2.69-2.53 4.04.19.04.38.07.57.07zM258.49 143.42h.03c.07.55.31 1.09.71 1.48.48.47 1.13.74 1.79.74.67 0 1.32-.27 1.79-.74s.74-1.12.74-1.79-.27-1.32-.74-1.79c-.48-.48-1.15-.71-1.82-.7a2.54 2.54 0 00-.51-1.26c.05-.04.1-.07.14-.12.32-.32.5-.75.5-1.19 0-.45-.18-.88-.49-1.2-.41-.41-1.04-.55-1.61-.42-.92 1.78-1.89 3.55-2.91 5.32.13.34.32.66.58.92.48.48 1.13.75 1.8.75z"/><path class="st0" d="M260.15 162.25a2.544 2.544 0 002.53-2.54c0-.3-.06-.6-.17-.89.41.27.89.43 1.39.43a2.544 2.544 0 002.53-2.54c0-.55-.2-1.1-.53-1.54.28-.08.54-.22.74-.43.32-.31.5-.75.5-1.19 0-.45-.18-.88-.49-1.19-.63-.63-1.76-.63-2.39 0a1.688 1.688 0 00-.35 1.86c-.66 0-1.33.23-1.8.7s-.74 1.13-.74 1.79c0 .31.06.61.17.89-.97-.61-2.36-.5-3.18.32-.47.47-.74 1.13-.74 1.79a2.544 2.544 0 002.53 2.54zM275.89 122.02c.45 0 .88-.18 1.2-.5.31-.32.49-.75.49-1.19 0-.45-.18-.88-.49-1.2-.63-.62-1.76-.62-2.39 0-.31.32-.49.76-.49 1.2a1.69 1.69 0 001.68 1.69zM272.37 143.7c-.26.26-.41.62-.41.99s.15.73.41.99c.26.27.62.42.99.42s.73-.15.99-.41c.27-.27.42-.63.42-1s-.15-.73-.41-.99c-.53-.53-1.46-.53-1.99 0zM251.8 169.73a1.415 1.415 0 001.99 0 1.409 1.409 0 000-1.99c-.31-.3-.75-.41-1.18-.36.32-.43.5-.96.5-1.49 0-.67-.27-1.32-.74-1.79-.69-.69-1.79-.87-2.7-.54a1.75 1.75 0 00-.43-.76c-.63-.63-1.75-.63-2.38 0-.32.31-.5.75-.5 1.19 0 .44.18.88.5 1.19.31.32.75.5 1.19.5h.02c-.01.07-.02.14-.02.21 0 .67.27 1.32.74 1.79s1.13.74 1.79.74c.31 0 .62-.06.91-.17-.06.16-.1.33-.1.5 0 .36.15.72.41.98zM276.15 89.15c.44 0 .88-.18 1.19-.49.32-.32.5-.75.5-1.2 0-.44-.18-.87-.5-1.19-.11-.11-.24-.2-.38-.27.27.09.55.15.84.15.66 0 1.31-.27 1.78-.74s.74-1.12.74-1.79c0-.11-.02-.22-.03-.32.22-.08.43-.21.6-.39.31-.31.49-.75.49-1.19s-.18-.88-.49-1.19c-.63-.63-1.76-.63-2.39 0-.18.17-.31.39-.39.62-.76-.09-1.55.13-2.1.68a2.512 2.512 0 000 3.58c.19.2.43.35.67.47-.59-.19-1.28-.06-1.72.38-.32.31-.5.75-.5 1.19 0 .45.18.88.5 1.2.31.32.75.5 1.19.5zM257.34 150.77c-.63-.63-1.75-.63-2.39 0-.31.31-.49.75-.49 1.19a1.688 1.688 0 002.88 1.2c.32-.32.5-.75.5-1.2 0-.44-.18-.88-.5-1.19zM246.65 156.15c.44 0 .88-.18 1.19-.49.32-.32.5-.75.5-1.2 0-.18-.04-.36-.09-.53-.53.74-1.07 1.48-1.62 2.22h.02zM260.15 152.65c.44 0 .88-.18 1.19-.49.13-.13.23-.28.31-.44.08.16.18.31.31.44a1.688 1.688 0 002.38 0c.32-.32.5-.75.5-1.2 0-.44-.18-.87-.5-1.19-.02-.02-.05-.04-.08-.07.21-.29.33-.63.33-.99 0-.44-.18-.88-.5-1.19-.63-.63-1.76-.63-2.38 0-.32.31-.5.75-.5 1.19 0 .45.18.88.5 1.2.02.02.05.04.08.06-.05.07-.1.15-.14.23-.08-.16-.18-.31-.31-.43-.63-.63-1.75-.63-2.38 0-.32.31-.5.75-.5 1.19 0 .45.18.88.5 1.2.31.31.75.49 1.19.49zM286.44 94.34c.26-.26.43-.6.48-.97.4.24.85.38 1.31.38.48 0 .95-.14 1.35-.4.05-1.41.07-2.81.07-4.22a2.41 2.41 0 00-.85-.34c.11-.23.17-.48.17-.74 0-.44-.18-.88-.49-1.19-.63-.63-1.76-.63-2.39 0-.31.31-.49.75-.49 1.19 0 .44.18.88.49 1.2.09.09.2.17.31.23-.44.47-.7 1.09-.7 1.74 0 .11.02.22.03.33-.58-.16-1.24-.03-1.67.4-.32.32-.5.75-.5 1.19 0 .45.18.88.5 1.2.04.04.09.07.13.11-.32-.14-.67-.18-1.02-.12-.97-.76-2.49-.71-3.37.16-.47.47-.74 1.12-.74 1.79 0 .2.03.4.08.59-.58-.16-1.24-.04-1.68.4-.32.31-.5.75-.5 1.19 0 .45.18.88.5 1.2.31.31.75.49 1.19.49a1.69 1.69 0 001.69-1.68c.38.22.81.34 1.25.34.67 0 1.32-.27 1.79-.74.13-.13.25-.28.35-.44.36-.05.7-.21.95-.47.32-.32.5-.76.5-1.2 0-.44-.18-.87-.5-1.19-.03-.03-.07-.06-.11-.09.21.09.45.15.68.15.44 0 .88-.18 1.19-.49z"/><path class="st0" d="M265.62 149.46a2.544 2.544 0 002.53 2.54c.67 0 1.32-.28 1.79-.75.43-.43.69-1.02.72-1.64.12.37.32.71.6.98.22.22.47.38.75.51-.17.08-.33.18-.47.31-.32.31-.5.75-.5 1.19 0 .12.01.23.04.34 1.22-2.05 2.39-4.1 3.49-6.15-.97-.7-2.45-.64-3.3.22a2.63 2.63 0 00-.73 1.65c-.12-.36-.32-.71-.59-.99-.08-.08-.18-.15-.28-.22.15-.1.3-.21.43-.34.47-.47.74-1.12.74-1.79 0-.66-.27-1.31-.74-1.79-.94-.94-2.64-.94-3.58 0-.14.14-.25.3-.35.46-.05-.06-.09-.12-.15-.18-.62-.63-1.75-.63-2.39 0-.31.32-.49.75-.49 1.2a1.69 1.69 0 001.69 1.68c.41 0 .82-.16 1.13-.44.13.32.31.62.56.86.09.09.18.16.28.23-.15.09-.3.2-.43.33-.48.48-.75 1.13-.75 1.79zM284.5 87.71c.44 0 .88-.18 1.19-.49.32-.32.5-.75.5-1.2 0-.44-.18-.88-.5-1.19-.63-.63-1.75-.63-2.38 0-.32.32-.5.75-.5 1.19 0 .14.02.28.06.41-.08-.06-.15-.13-.24-.18-.05-.37-.21-.71-.48-.97-.63-.63-1.76-.62-2.39 0a1.73 1.73 0 00-.46 1.52c-.35.45-.56 1.01-.56 1.57 0 .67.27 1.32.74 1.79.17.16.36.29.56.4-.09.21-.13.43-.13.66 0 .44.18.88.5 1.19.32.32.75.5 1.19.5.44 0 .88-.18 1.19-.5.32-.31.5-.75.5-1.19 0-.35-.12-.69-.32-.98.03-.03.07-.05.1-.08.48-.47.75-1.12.75-1.79 0-.32-.06-.62-.18-.91.26.16.56.25.86.25zM147.01 92.27c-.11-.11-.23-.2-.36-.29.52 1.65 1.1 3.29 1.71 4.92.08-.2.12-.41.12-.63 0-.05-.01-.1-.02-.16.16.13.35.22.56.22a.87.87 0 00.87-.88c0-.23-.09-.45-.25-.62-.33-.32-.92-.32-1.24 0-.12.13-.2.3-.23.47-.05-.08-.11-.15-.18-.22-.11-.11-.24-.2-.38-.27.08-.25.13-.5.13-.76.01-.65-.26-1.3-.73-1.78zM154.29 101.45c-.63-.63-1.59-.83-2.45-.62-.02-.02-.03-.04-.04-.05-.52-.52-1.36-.6-2-.27 1.04 2.46 2.19 4.88 3.44 7.26.41-.03.8-.2 1.09-.49.31-.31.49-.75.49-1.19 0-.42-.17-.84-.46-1.15.42-.46.67-1.07.67-1.7 0-.67-.27-1.32-.74-1.79zM188.53 92.55c.02-.13.04-.25.04-.38 0-.67-.27-1.32-.74-1.79-.25-.25-.54-.43-.86-.54.48.97 1.01 1.88 1.56 2.71zM209.46 91.85c.66 0 1.31-.27 1.79-.74.47-.47.74-1.13.74-1.79 0-.67-.27-1.32-.74-1.79-.95-.94-2.64-.94-3.58 0a2.512 2.512 0 000 3.58c.47.47 1.12.74 1.79.74zM151.66 94.17a2.58 2.58 0 00-.74 1.79c0 .67.27 1.32.74 1.79s1.12.74 1.79.74c.44 0 .88-.13 1.26-.35-.03.13-.06.27-.06.41 0 .44.18.88.49 1.19.31.32.75.5 1.19.5.45 0 .88-.18 1.2-.5.31-.31.49-.75.49-1.19 0-.37-.13-.73-.35-1.02.19.07.4.12.61.12h.04c.12.39.32.76.62 1.05a2.512 2.512 0 002.77.55c-.29.31-.45.72-.45 1.14 0 .45.18.89.49 1.2a1.688 1.688 0 002.88-1.2c0-.44-.18-.88-.49-1.19-.46-.46-1.17-.58-1.77-.37.05-.04.11-.08.15-.13.37-.37.61-.86.7-1.38.28.21.63.33.99.33.08 0 .16-.01.23-.02-.01.08-.02.16-.02.23 0 .44.18.88.49 1.2.32.31.75.49 1.2.49.44 0 .87-.18 1.19-.49.31-.32.49-.75.49-1.2 0-.44-.18-.88-.49-1.19-.37-.37-.91-.52-1.43-.45.01-.09.03-.17.03-.26 0-.44-.18-.88-.5-1.19-.63-.63-1.76-.63-2.38 0-.15.15-.27.33-.36.53-.05-.06-.09-.12-.14-.17-.8-.79-2.11-.91-3.07-.37-.63-.61-1.74-.6-2.36.02-.32.31-.5.75-.5 1.19 0 .38.14.74.37 1.04-.38-.14-.82-.14-1.2-.01.14-.32.22-.67.22-1.03 0-.66-.27-1.31-.74-1.79-.94-.95-2.64-.95-3.58-.01zM167.37 101.03c0 .66.27 1.31.74 1.79.48.47 1.13.74 1.79.74.37 0 .74-.09 1.07-.25a9.27 9.27 0 00-1.06-3.71c-.45-.84-.88-1.69-1.29-2.55-.05.16-.08.32-.08.49 0 .43.17.84.46 1.15-.33.12-.63.3-.88.55-.48.47-.75 1.12-.75 1.79zM154.7 110.03c-.04-.6-.3-1.19-.73-1.62-.18-.18-.39-.32-.62-.43.06.12.12.23.18.35.33.63.73 1.19 1.17 1.7zM200.6 97.55c0-.67-.28-1.32-.75-1.79-.94-.95-2.63-.95-3.58 0-.47.47-.74 1.12-.74 1.79 0 .66.27 1.32.74 1.79.17.16.36.29.55.4-.09.21-.14.43-.14.65.88.51 1.8.94 2.75 1.3.04-.04.09-.07.13-.11.32-.32.5-.75.5-1.2 0-.35-.12-.68-.32-.97.03-.03.07-.05.1-.08.48-.47.76-1.12.76-1.78zM188.91 90.57c-.09.21-.13.43-.13.66 0 .44.18.88.5 1.19.32.32.75.5 1.19.5.44 0 .88-.18 1.19-.5.32-.31.5-.75.5-1.19 0-.35-.12-.69-.32-.98.03-.03.07-.05.1-.08.48-.47.75-1.12.75-1.79 0-.32-.06-.62-.18-.91.26.16.56.25.87.25.44 0 .88-.18 1.19-.49.32-.32.5-.75.5-1.2 0-.44-.18-.88-.5-1.19-.63-.63-1.75-.63-2.38 0-.32.32-.5.75-.5 1.19 0 .14.02.28.06.41-.08-.06-.15-.13-.24-.18-.05-.37-.21-.71-.48-.97-.63-.63-1.76-.62-2.39 0a1.73 1.73 0 00-.46 1.52c-.35.45-.56 1.01-.56 1.57 0 .67.27 1.32.74 1.79.16.16.35.28.55.4zM214.52 99.44c.66 0 1.32-.27 1.79-.74.05-.05.09-.11.14-.17.08.2.2.38.35.53.32.31.75.49 1.2.49.44 0 .87-.18 1.19-.49.31-.32.5-.76.5-1.2 0-.44-.18-.88-.5-1.19-.57-.57-1.53-.62-2.18-.17-.09-.51-.33-1-.7-1.38-.95-.94-2.63-.94-3.58 0-.47.47-.74 1.13-.74 1.79 0 .67.27 1.32.74 1.79s1.12.74 1.79.74zM158.58 107.11c-.31.31-.49.75-.49 1.19 0 .45.18.88.5 1.2.18.18.4.31.64.39-.24.08-.47.2-.65.38-.31.32-.49.75-.49 1.2 0 .44.18.88.5 1.19.02.02.04.03.06.05 1.81.63 3.81.72 5.72.14-.08-.12-.17-.23-.27-.34-.7-.7-1.81-.87-2.72-.54.05-.17.09-.34.09-.51 0-.45-.18-.88-.5-1.2-.18-.18-.41-.3-.65-.38.24-.08.47-.21.65-.39.32-.32.5-.75.5-1.2 0-.24-.06-.47-.16-.69.39.24.85.38 1.32.38.66 0 1.31-.27 1.79-.74.47-.47.74-1.13.74-1.79 0-.67-.27-1.32-.74-1.79-.95-.95-2.64-.95-3.58 0-.48.47-.75 1.12-.75 1.79 0 .46.14.93.39 1.32-.63-.25-1.41-.14-1.9.34zM209.77 97.65c.44 0 .88-.18 1.19-.49.32-.32.5-.76.5-1.2 0-.44-.18-.88-.5-1.19-.63-.63-1.76-.63-2.38 0-.32.31-.5.75-.5 1.19 0 .45.18.88.5 1.2.31.31.75.49 1.19.49zM206.08 102.29c0-.44-.18-.88-.49-1.19-.64-.63-1.76-.63-2.39 0-.32.31-.5.75-.5 1.19 0 .13.02.26.05.38 1.02.21 2.06.35 3.12.42.13-.24.21-.51.21-.8z"/><path class="st0" d="M165.4 91.29c-.63-.63-1.76-.63-2.38 0-.32.31-.5.75-.5 1.19 0 .45.18.88.5 1.2.31.31.75.49 1.19.49.44 0 .87-.18 1.19-.49.02-.02.03-.04.05-.06.12.24.27.46.45.65.46.46 1.09.72 1.75.74-.64-1.41-1.24-2.83-1.79-4.27-.17.18-.31.38-.42.6a.218.218 0 01-.04-.05zM221.03 98.82c.28-.19.54-.41.81-.62-.23.08-.44.2-.62.37-.07.08-.13.16-.19.25zM214.76 93.99c.32-.31.5-.75.5-1.19 0-.44-.18-.88-.5-1.19-.63-.63-1.76-.63-2.39 0-.31.31-.49.75-.49 1.19 0 .44.18.88.5 1.19.31.32.74.5 1.19.5.44 0 .88-.18 1.19-.5zM156.37 101.1c-.31.31-.49.75-.49 1.19 0 .45.18.88.49 1.2.32.31.75.49 1.19.49.45 0 .88-.18 1.2-.49.31-.32.49-.75.49-1.2 0-.44-.18-.88-.49-1.19-.64-.63-1.76-.63-2.39 0zM157.49 92.73c.32-.32.5-.75.5-1.2 0-.44-.18-.87-.5-1.19-.63-.63-1.76-.63-2.39 0-.31.32-.49.75-.49 1.19 0 .45.18.88.49 1.2.32.31.75.49 1.2.49.44 0 .88-.18 1.19-.49zM154.29 107.99a1.69 1.69 0 001.69 1.68c.45 0 .88-.18 1.2-.49.31-.32.49-.75.49-1.19 0-.45-.18-.88-.49-1.2-.63-.63-1.76-.62-2.39 0-.32.32-.5.75-.5 1.2zM163.65 109.01c-.32.31-.5.75-.5 1.19 0 .44.18.88.5 1.2a1.688 1.688 0 002.88-1.2c0-.44-.18-.87-.49-1.19-.64-.63-1.77-.63-2.39 0zM158.37 91.85a1.417 1.417 0 001.41 1.41c.37 0 .73-.15.99-.42.26-.26.41-.62.41-.99 0-.04-.02-.07-.02-.11.08-.05.17-.09.24-.16.27-.26.42-.62.42-.99s-.15-.73-.41-1c-.53-.52-1.46-.52-1.99 0-.27.27-.41.63-.41 1 0 .04.02.07.02.11-.09.05-.18.09-.25.16-.26.26-.41.62-.41.99zM148.91 91.84c-.16.17-.26.39-.26.62 0 .24.1.46.26.62a.87.87 0 001.49-.62c0-.23-.09-.45-.25-.61-.32-.33-.92-.33-1.24-.01zM150.15 99.46c0 .23.1.46.26.62a.854.854 0 001.23 0c.17-.16.27-.39.27-.62 0-.22-.1-.45-.26-.61-.32-.33-.92-.33-1.24 0a.89.89 0 00-.26.61zM148.63 97.62c.18.47.37.93.56 1.4.13-.15.21-.35.21-.55 0-.23-.09-.45-.25-.62a.854.854 0 00-.52-.23zM165.91 101.85a.89.89 0 00-.26.61c0 .23.1.46.26.62a.87.87 0 001.24 0c.16-.17.25-.39.25-.62 0-.22-.09-.45-.25-.62-.33-.32-.92-.32-1.24.01zM166.59 109.66c.31.31.75.49 1.19.49.44 0 .87-.18 1.19-.49.21-.21.36-.48.43-.76.04.02.08.05.13.07.6-.95 1.03-1.99 1.26-3.08-.39-.12-.81-.1-1.18.05-.08-.27-.22-.52-.41-.72-.64-.63-1.76-.63-2.39 0-.31.32-.49.75-.49 1.19 0 .31.09.62.25.88-.3.32-.48.74-.48 1.18 0 .44.18.87.5 1.19zM215.04 101.84c-.15-.04-.31-.08-.47-.09.03-.13.05-.26.05-.4 0-.44-.18-.88-.49-1.19-.55-.55-1.47-.62-2.11-.22-.08-.27-.22-.53-.42-.73-.64-.63-1.76-.62-2.39 0-.31.31-.49.75-.49 1.19 0 .45.18.88.49 1.2.32.31.75.49 1.2.49.32 0 .64-.1.91-.27.08.27.22.53.42.73.05.05.12.1.18.14 1.05-.22 2.09-.5 3.12-.85zM162.31 88.16a1.69 1.69 0 001.69-1.68c0-.45-.18-.88-.5-1.2-.63-.63-1.75-.63-2.38 0-.32.32-.5.75-.5 1.2a1.69 1.69 0 001.69 1.68zM148.5 87.21c-.17.17-.31.38-.42.59-.08-.19-.2-.38-.36-.53-.63-.63-1.75-.63-2.39 0-.01.01-.01.02-.02.03.24.93.5 1.86.77 2.79.15.04.29.07.45.07.44 0 .88-.18 1.19-.49.04-.04.07-.08.1-.12.1.47.34.91.68 1.25.47.47 1.12.74 1.79.74.66 0 1.31-.27 1.78-.74.19-.19.34-.41.46-.64.01.02.03.04.04.05.32.31.75.49 1.2.49.44 0 .88-.18 1.19-.49.31-.32.5-.75.5-1.2 0-.44-.19-.87-.5-1.19-.63-.63-1.75-.63-2.39 0-.02.02-.03.03-.04.05-.12-.24-.27-.46-.46-.65-.94-.95-2.63-.95-3.57-.01zM194.48 88.05c0 .44.18.88.49 1.2.09.09.2.17.31.23-.44.47-.7 1.09-.7 1.74 0 .11.02.22.03.33-.58-.16-1.24-.03-1.67.4-.32.32-.5.75-.5 1.19 0 .45.18.88.5 1.2.04.04.09.07.13.11-.32-.14-.67-.18-1.02-.12-.7-.55-1.69-.68-2.52-.37 1.07 1.41 2.2 2.6 3.33 3.61.26-.08.51-.21.7-.41.32-.32.5-.76.5-1.2 0-.44-.18-.87-.5-1.19-.03-.03-.07-.06-.11-.09.21.09.45.15.68.15.44 0 .88-.18 1.19-.49.26-.26.43-.6.48-.97.4.24.85.38 1.31.38.67 0 1.32-.27 1.79-.74s.74-1.13.74-1.79c0-.67-.27-1.32-.74-1.79-.33-.33-.77-.54-1.22-.64.11-.23.17-.48.17-.74 0-.44-.18-.88-.49-1.19-.63-.63-1.76-.63-2.39 0-.31.31-.49.75-.49 1.19z"/><path class="st0" d="M156.81 86.66a1.969 1.969 0 000 2.79c.36.36.87.57 1.39.57.51 0 1.02-.21 1.39-.58a1.952 1.952 0 000-2.78c-.74-.74-2.06-.73-2.78 0zM163.75 88.37c0 .37.15.74.41 1 .27.26.63.41 1 .41.11 0 .21-.04.32-.06a80 80 0 01-.91-2.6c-.15.07-.29.15-.41.26-.26.26-.41.62-.41.99zM230.82 10.5c.06.1.14.2.22.28.23.23.53.39.84.46-.17.1-.34.22-.49.36-.47.47-.74 1.12-.74 1.79 0 .66.27 1.31.74 1.79.3.29.67.5 1.06.62 0 .04-.01.08-.01.12 0 .44.18.88.5 1.19.31.32.75.5 1.19.5.44 0 .88-.18 1.19-.5.32-.31.5-.75.5-1.19 0-.44-.18-.88-.5-1.2.13-.21.23-.44.29-.68 0 .43.18.87.49 1.17.31.32.75.5 1.19.5.17 0 .33-.03.49-.08-.18.27-.28.6-.28.92 0 .09.01.17.03.26-.51-.07-1.06.08-1.43.45a1.688 1.688 0 000 2.38c.32.32.75.5 1.19.5.22 0 .44-.04.64-.13.09.04.18.06.27.08-.26.07-.5.2-.69.39-.22.22-.38.51-.45.83l-.01-.01c-.06-.33-.22-.65-.46-.88-.63-.63-1.75-.63-2.39 0-.24.24-.4.55-.46.88-.04.04-.09.07-.13.11-.48.47-.75 1.12-.75 1.79 0 .3.06.6.17.88.43.01.87.03 1.31.08 2.11.24 4.22.97 6.28 2.02-.01-.65-.28-1.28-.73-1.74-.53-.53-1.28-.75-2.02-.69.04-.18.07-.36.07-.55v-.03a1.607 1.607 0 001.09.17c.27.18.6.28.93.28.45 0 .88-.18 1.2-.5.31-.31.49-.75.49-1.19 0-.09-.01-.18-.03-.27.14.04.28.06.43.06.25 0 .5-.06.73-.17.18.04.36.06.54.06.66 0 1.31-.27 1.78-.74s.75-1.12.75-1.79c0-.66-.28-1.32-.75-1.79-.94-.94-2.63-.94-3.57 0-.44.43-.69 1.02-.73 1.63-.28.3-.44.71-.44 1.11 0 .1.01.2.03.29-.24-.06-.48-.07-.73-.03-.18-.12-.39-.2-.6-.24.26-.08.5-.22.69-.42.32-.31.5-.75.5-1.19 0-.18-.04-.36-.09-.52a2 2 0 00.22-.19c.32-.31.5-.75.5-1.19 0-.44-.18-.88-.49-1.19-.44-.44-1.12-.56-1.7-.39.19-.28.29-.61.29-.95 0-.44-.18-.88-.49-1.19-.63-.63-1.76-.63-2.39 0-.19.19-.32.43-.4.68 0-.04.01-.08.01-.12 0-.67-.27-1.32-.74-1.79-.45-.45-1.06-.68-1.69-.7.05-.04.1-.07.14-.12.32-.31.5-.75.5-1.19 0-.32-.1-.64-.27-.91-.06-.1-.14-.2-.22-.29a1.777 1.777 0 00-1.19-.48c-.18 0-.37.03-.54.09-.24.08-.47.2-.66.38-.08.08-.16.18-.22.28-.18.27-.27.59-.27.91-.01.35.09.67.27.94zM230.86 80.15c0 .44.18.88.49 1.19.28.28.65.45 1.04.48.29-1.06.54-2.13.76-3.23-.61-.22-1.34-.1-1.8.36-.31.32-.49.76-.49 1.2zM195.01 78.36c-.47.47-.74 1.12-.74 1.79 0 .25.05.49.12.72-.63-.3-1.44-.2-1.95.3a1.688 1.688 0 001.2 2.88c.44 0 .87-.18 1.19-.49.31-.32.49-.75.49-1.2 0-.06-.01-.12-.02-.18.43.32.96.5 1.5.5.67 0 1.32-.27 1.79-.74.26-.26.45-.57.57-.91.07.11.14.22.24.31.32.32.75.5 1.2.5.34 0 .68-.11.96-.3-.14.25-.22.52-.22.8 0 .45.18.88.5 1.2.31.31.75.49 1.19.49.09 0 .18-.01.27-.03-.02.02-.04.03-.06.05-.47.47-.74 1.13-.74 1.79 0 .67.27 1.32.74 1.79.2.2.44.36.7.48-.62-.04-1.24.13-1.74.5 0-.05.02-.1.02-.15 0-.44-.18-.88-.5-1.19-.62-.63-1.75-.63-2.38 0-.32.31-.5.75-.5 1.19 0 .45.18.88.5 1.2.31.31.75.49 1.19.49.28 0 .55-.08.79-.21a2.301 2.301 0 00-.04 1.12c-.11.06-.21.14-.3.23-.31.31-.49.75-.49 1.19 0 .43.18.87.48 1.19-.04.03-.09.06-.13.1-.32.31-.5.75-.5 1.19a1.688 1.688 0 001.69 1.69c.34 0 .67-.1.94-.29-.1.28-.16.57-.16.87 0 .09.02.18.03.27-.64-.33-1.48-.25-2 .27-.32.31-.5.75-.5 1.19a1.688 1.688 0 002.88 1.2c.28-.28.44-.63.48-1.02.46.39 1.04.62 1.64.62.67 0 1.32-.27 1.79-.74s.74-1.13.74-1.79c0-.66-.27-1.32-.74-1.79-.9-.9-2.5-.93-3.46-.1.03-.12.05-.25.05-.38 0-.43-.17-.86-.48-1.17.05-.04.09-.07.13-.11.16-.16.29-.35.37-.56h.02c.67 0 1.32-.27 1.79-.74.47-.48.74-1.13.74-1.8 0-.66-.27-1.31-.74-1.78-.19-.19-.42-.34-.66-.45.05 0 .09.01.14.01.66 0 1.31-.27 1.78-.74.3-.3.51-.67.63-1.07.37-.05.73-.21.99-.47a1.69 1.69 0 00.47-1.51c.04-.04.09-.07.13-.11.08-.08.15-.17.22-.26-1.32.52-2.7.55-3.34.09a7.03 7.03 0 01-1.09-.94v.01c-.18.01-.36.05-.53.09.11-.12.2-.26.27-.4-.46-.55-.95-1.31-1.37-2.37-.4-.03-.8.06-1.13.29.14-.25.23-.54.23-.83 0-.45-.18-.88-.49-1.19-.63-.63-1.76-.63-2.39 0-.09.09-.17.2-.24.31-.13-.34-.32-.65-.57-.91-.96-.93-2.65-.93-3.59.01zM212.73 44.92c.47.47 1.12.74 1.79.74.19 0 .38-.03.56-.07a1.7 1.7 0 00-.35 1.02c0 .44.18.88.49 1.19.32.32.75.5 1.2.5a1.69 1.69 0 001.19-2.88c-.35-.36-.86-.51-1.35-.46.01-.01.03-.02.05-.04.42-.42.67-1 .72-1.59.08.25.22.49.41.67.31.32.75.5 1.19.5.45 0 .88-.18 1.19-.5.32-.31.5-.74.5-1.19 0-.44-.18-.88-.5-1.19-.63-.63-1.75-.63-2.38 0-.25.24-.41.57-.47.91a2.51 2.51 0 00-.66-1.19c-.13-.13-.28-.24-.44-.34-.05-.36-.21-.71-.48-.96-.63-.63-1.75-.63-2.38 0-.32.31-.5.75-.5 1.19 0 .11.01.23.04.34-.35.44-.55.99-.55 1.56-.01.67.26 1.32.73 1.79zM155.67 31.42c0-.66-.28-1.32-.75-1.79-.94-.94-2.63-.94-3.58 0a2.58 2.58 0 00-.74 1.79c0 .67.27 1.32.74 1.79.48.47 1.13.74 1.79.74.07 0 .13-.01.19-.02-.04.03-.08.06-.11.09-.32.32-.5.75-.5 1.2 0 .44.18.88.5 1.19.31.32.75.5 1.19.5.44 0 .88-.18 1.19-.5.32-.31.5-.75.5-1.19 0-.45-.18-.88-.5-1.2-.3-.29-.71-.44-1.12-.46.16-.1.32-.21.45-.35.47-.47.75-1.12.75-1.79zM156.49 48.38a1.969 1.969 0 000 2.79c.36.36.87.57 1.39.57.52 0 1.03-.21 1.39-.57.37-.37.58-.88.58-1.4 0-.51-.21-1.02-.58-1.39-.74-.73-2.05-.73-2.78 0zM160.47 15.66c-.62-.27-1.4-.16-1.9.33-.31.31-.49.75-.49 1.19 0 .45.18.88.5 1.2.18.18.4.31.64.39-.24.08-.47.2-.65.38-.31.32-.49.75-.49 1.2a1.688 1.688 0 002 1.65c-.2.37-.31.78-.31 1.2 0 .61.24 1.21.65 1.67-.43.47-.68 1.09-.68 1.72 0 .67.27 1.32.74 1.79s1.12.74 1.79.74c.67 0 1.32-.27 1.79-.74s.74-1.12.74-1.79c0-.61-.24-1.22-.65-1.68.43-.46.68-1.08.68-1.71 0-.67-.27-1.32-.74-1.8-.7-.7-1.81-.87-2.72-.54.05-.17.09-.34.09-.51 0-.45-.18-.88-.5-1.2-.18-.18-.41-.3-.65-.38.24-.08.47-.21.65-.39.32-.32.5-.75.5-1.2 0-.24-.06-.47-.16-.69.39.24.85.38 1.32.38.66 0 1.31-.27 1.79-.74.47-.47.74-1.13.74-1.79 0-.67-.27-1.32-.74-1.79-.56-.56-1.38-.78-2.16-.68-.72.6-1.41 1.22-2.09 1.86-.05.2-.08.4-.08.61.01.46.15.92.39 1.32zM195.64 44.92c.47.47 1.12.74 1.79.74.67 0 1.32-.27 1.79-.74s.74-1.12.74-1.79c0-.67-.27-1.32-.74-1.79-.94-.94-2.64-.94-3.58 0-.47.47-.74 1.12-.74 1.79 0 .67.27 1.32.74 1.79zM190.35 20.11c-.13-.3-.31-.58-.54-.81-.81-.8-2.16-.91-3.13-.34.05-.16.09-.33.09-.51 0-.44-.18-.88-.5-1.2-.63-.62-1.75-.62-2.38.01-.32.31-.5.75-.5 1.19 0 .44.18.88.5 1.19a1.673 1.673 0 001.86.36c-.1.2-.17.42-.22.64 1.61-.35 3.23-.53 4.82-.53zM206.4 13.18c-.47.47-.74 1.12-.74 1.79 0 .67.27 1.32.74 1.79.31.31.7.52 1.12.64-.08.05-.15.11-.21.17-.31.32-.49.75-.49 1.2 0 .44.18.87.49 1.19.32.31.75.49 1.2.49.44 0 .87-.18 1.19-.49.31-.32.49-.75.49-1.19 0-.45-.18-.88-.49-1.2a1.62 1.62 0 00-.46-.31c.27-.12.53-.29.74-.5.47-.47.74-1.12.74-1.79 0-.67-.27-1.32-.74-1.79-.95-.95-2.64-.94-3.58 0zM221.48 57.37c0 .66.27 1.31.74 1.79.47.47 1.13.74 1.79.74.08 0 .16-.02.25-.02-.02.11-.04.23-.04.34a1.69 1.69 0 003.38 0c0-.45-.18-.89-.5-1.2-.24-.24-.55-.39-.88-.44.2-.37.32-.79.32-1.21 0-.67-.27-1.32-.74-1.79-.18-.18-.39-.31-.6-.42.24-.08.46-.22.63-.4.32-.31.5-.75.5-1.19 0-.45-.18-.88-.49-1.19-.64-.63-1.76-.63-2.39 0-.32.31-.5.75-.5 1.19 0 .44.18.88.5 1.19.05.05.11.1.17.14-.52.08-1.02.3-1.4.68-.47.47-.74 1.12-.74 1.79zM149.13 60.32a2.58 2.58 0 00-.74 1.79c0 .66.27 1.3.72 1.77-.12.24-.19.5-.19.77 0 .44.18.87.49 1.19.31.31.75.49 1.19.49.45 0 .88-.18 1.2-.49.31-.32.49-.75.49-1.19 0-.13-.02-.26-.05-.39.17-.1.33-.22.47-.36.47-.47.74-1.12.74-1.79 0-.66-.27-1.31-.74-1.79-.94-.94-2.64-.94-3.58 0zM149.7 47.6a1.409 1.409 0 000-1.99c-.52-.52-1.46-.52-1.99 0-.26.27-.41.63-.41 1s.15.73.41 1c.27.26.63.4.99.4.37 0 .74-.14 1-.41zM162.7 80.51c-.05.19-.08.39-.08.59 0 .61.24 1.21.64 1.67-.19-.75-.38-1.51-.56-2.26zM180.35 9.85c-.54-.1-1.13.05-1.53.44-.31.32-.49.75-.49 1.2 0 .44.18.88.5 1.19.31.31.74.5 1.19.5.45 0 .88-.19 1.19-.5.17-.17.3-.37.39-.6.38.22.82.36 1.27.36.66 0 1.31-.27 1.79-.74.47-.48.74-1.13.74-1.79 0-.67-.27-1.32-.75-1.79-.94-.95-2.63-.94-3.57 0-.46.45-.71 1.08-.73 1.73zM186.04 3.58c.67 0 1.32-.27 1.79-.74.34-.34.57-.79.68-1.26-1.6.06-3.2.22-4.79.47.13.29.3.56.53.78.47.48 1.13.75 1.79.75zM220.21 14.97h.02c.08.21.21.4.37.56.32.31.75.49 1.19.49.45 0 .88-.18 1.2-.49.31-.32.49-.75.49-1.19 0-.45-.18-.88-.49-1.2a1.48 1.48 0 00-.29-.22c.03-.16.05-.32.05-.48 0-.67-.27-1.32-.75-1.79-.94-.95-2.63-.95-3.58 0-.47.47-.74 1.12-.74 1.79 0 .66.27 1.31.74 1.79.48.47 1.13.74 1.79.74zM168.11 8.12c-.47.47-.74 1.12-.74 1.79 0 .66.27 1.31.74 1.79.48.47 1.13.74 1.79.74.67 0 1.32-.27 1.79-.74s.74-1.13.74-1.79c0-.67-.27-1.32-.74-1.79-.14-.14-.3-.25-.46-.35.06-.05.13-.09.18-.15a1.663 1.663 0 00.36-1.86c-1.01.48-2 1.01-2.97 1.57.05.08.12.16.19.24-.33.12-.63.3-.88.55zM203.67 26.6c-.41.02-.81.17-1.11.46a1.656 1.656 0 00-.39 1.78v.04c0 .67.27 1.32.74 1.79s1.12.74 1.79.74c.57 0 1.14-.21 1.58-.57-.2.37-.32.78-.32 1.2 0 .67.27 1.32.75 1.79.47.47 1.12.75 1.79.75.66 0 1.31-.27 1.78-.75.48-.47.75-1.12.75-1.79 0-.66-.27-1.31-.75-1.79-.14-.14-.3-.25-.47-.35.25-.3.39-.68.39-1.07 0-.44-.18-.88-.5-1.19-.62-.63-1.75-.63-2.38 0-.11.1-.19.23-.27.36-.13-.34-.32-.65-.57-.91-.71-.71-1.88-.88-2.81-.49zm3.25 3.5c.07-.12.13-.25.17-.39.04.06.08.12.13.18-.11.06-.21.13-.3.21zM196 34.03c-.24.43-.48.87-.72 1.31-.04.17-.05.34-.05.51 0 .67.27 1.32.74 1.79s1.12.74 1.79.74c.66 0 1.31-.27 1.79-.74.47-.47.74-1.12.74-1.79 0-.66-.27-1.32-.74-1.79-.95-.93-2.61-.94-3.55-.03zM214.26 55.3c.02.02.03.04.04.05.47.47 1.12.74 1.79.74.67 0 1.32-.27 1.79-.74s.74-1.12.74-1.79c0-.67-.27-1.32-.74-1.79-.13-.13-.28-.24-.44-.34-.05-.36-.21-.71-.47-.96-.64-.63-1.76-.63-2.39 0-.32.31-.5.75-.5 1.19 0 .11.01.22.04.33-.15.19-.28.4-.37.63.19.9.36 1.79.51 2.68zM205.13 38.49c-.47.47-.74 1.13-.74 1.79 0 .67.27 1.32.74 1.79s1.13.74 1.8.74c.06 0 .11-.01.17-.02.06.1.13.18.21.27.32.31.75.49 1.2.49.44 0 .87-.18 1.19-.49.31-.32.49-.75.49-1.2 0-.44-.18-.88-.49-1.19-.08-.08-.17-.15-.26-.21 0-.06.02-.12.02-.18 0-.66-.27-1.32-.75-1.79-.94-.94-2.63-.94-3.58 0zM193.84 44.5c-.72-.73-1.9-.89-2.83-.49-.46 1.04-.9 2.09-1.33 3.15.13.34.32.66.58.92.47.47 1.13.74 1.8.74.66 0 1.31-.27 1.78-.74s.74-1.12.74-1.79c0-.66-.27-1.31-.74-1.79zM201.02 71.4c-.47.47-.74 1.12-.74 1.79 0 .66.27 1.32.74 1.79.32.32.74.54 1.18.66-.01-.11-.02-.21-.02-.33-.05-1.46.02-3 .19-4.57-.51.07-.99.29-1.35.66zM196.48 67.18a2.547 2.547 0 002.53 2.53c.67 0 1.32-.27 1.79-.75.47-.47.74-1.12.74-1.78 0-.67-.27-1.32-.74-1.8-.33-.33-.75-.53-1.21-.63.33-.06.64-.22.88-.46.32-.32.5-.76.5-1.2 0-.44-.18-.88-.5-1.19-.63-.63-1.75-.63-2.38 0-.32.31-.5.75-.5 1.19 0 .45.18.88.5 1.2.19.19.44.33.7.41-.58.05-1.15.27-1.57.68-.47.48-.74 1.13-.74 1.8zM193.53 60.58a1.587 1.587 0 00-1.14-.86c.25-.31.4-.69.4-1.09 0-.44-.18-.87-.49-1.19-.4-.4-1-.54-1.55-.44-.08-.54-.32-1.04-.7-1.42-.85-.85-2.3-.93-3.27-.25-.31 1-.59 2-.86 3 .07.16.15.32.25.47-.11-.04-.23-.07-.35-.09-.65 2.48-1.18 4.95-1.55 7.4.38-.12.74-.33 1.03-.62.47-.47.74-1.12.74-1.78 0-.62-.24-1.22-.65-1.68.05 0 .09.01.14.01.44 0 .88-.18 1.19-.49.32-.32.5-.76.5-1.2 0-.27-.08-.54-.2-.78.38.21.8.34 1.24.34.49 0 .98-.15 1.39-.42.07.13.15.25.26.35.23.22.52.38.82.45-.25.3-.4.68-.4 1.07 0 .45.18.88.5 1.2l.01.01c-.04.17-.06.34-.06.51 0 .67.27 1.32.74 1.79s1.12.74 1.79.74c.66 0 1.32-.27 1.79-.74s.74-1.12.74-1.79c0-.67-.27-1.32-.74-1.79-.42-.44-.99-.66-1.57-.71zM214.56 57.12c.25 1.62.46 3.22.61 4.8.3-.13.58-.31.81-.54.47-.47.74-1.12.74-1.79 0-.66-.27-1.31-.74-1.79-.38-.39-.88-.61-1.42-.68zM184.46 77.3c0 .67.27 1.32.74 1.79s1.12.74 1.79.74c.67 0 1.32-.27 1.79-.74s.74-1.12.74-1.79c0-.66-.27-1.32-.74-1.79-.27-.27-.6-.45-.95-.56.14-.25.22-.52.22-.81 0-.45-.18-.88-.5-1.2-.63-.62-1.75-.63-2.39 0-.31.32-.49.75-.49 1.2 0 .44.18.87.5 1.19.04.04.08.07.13.1-.03.03-.07.05-.1.08-.47.47-.74 1.12-.74 1.79zM152.99 67.52c-.08-.14-.16-.27-.28-.37-.63-.63-1.76-.63-2.38 0-.32.31-.5.75-.5 1.19 0 .45.18.88.5 1.2.31.31.75.49 1.19.49.44 0 .88-.18 1.19-.49.09-.09.17-.2.24-.31.12.37.32.72.6 1 .47.47 1.12.74 1.79.74.67 0 1.32-.27 1.79-.74s.74-1.12.74-1.79c0-.66-.27-1.32-.74-1.79-.95-.94-2.64-.94-3.58 0-.24.25-.43.55-.56.87zM157.46 78.99c-.95-.94-2.64-.94-3.58 0-.47.47-.74 1.13-.74 1.79 0 .67.27 1.32.74 1.79s1.12.74 1.79.74c.66 0 1.31-.27 1.79-.74.11-.11.2-.23.29-.36-.04.18-.06.35-.06.54 0 .67.27 1.32.74 1.79s1.12.74 1.79.74c.66 0 1.32-.27 1.79-.74s.74-1.12.74-1.79c0-.67-.27-1.32-.74-1.79-.16-.16-.35-.28-.55-.39-.05-.29-.16-.57-.37-.78-.52-.53-1.47-.53-1.99 0-.25.25-.39.6-.4.96-.09.07-.19.13-.27.21-.11.11-.2.23-.29.36.04-.18.06-.35.06-.54 0-.66-.27-1.32-.74-1.79zM145.23 81.72c-.35-.35-.83-.55-1.33-.6.26 1.37.57 2.75.89 4.11.01-.01.03-.01.04-.02.06.33.22.64.47.88.31.31.75.49 1.19.49.44 0 .87-.18 1.19-.49.14-.14.24-.3.33-.47.3.18.65.29 1.01.29.52 0 1.03-.21 1.39-.57.37-.37.58-.88.58-1.4 0-.51-.21-1.02-.58-1.39-.73-.73-2.04-.73-2.78 0-.23.23-.38.51-.48.81-.4-.16-.86-.17-1.26-.02v-.02c0-.6-.24-1.18-.66-1.6z"/><path class="st0" d="M147.96 67.6c-.94-.94-2.63-.94-3.58 0-.47.47-.74 1.13-.74 1.79 0 .67.27 1.32.74 1.79 0 0 .01 0 .01.01-.47-.03-.96.12-1.3.46-.22.22-.37.5-.45.8.14 1.41.32 2.83.52 4.25.27-.08.52-.22.73-.41.31-.32.49-.75.49-1.19 0-.19-.04-.38-.1-.56.33 0 .66-.1.93-.28-.05.17-.09.34-.09.52a1.682 1.682 0 001.38 1.66c.02.64.28 1.26.73 1.71.14.14.29.25.46.35-.42.01-.83.17-1.13.47-.31.31-.49.75-.49 1.19s.18.88.49 1.19c.32.32.75.5 1.2.5a1.69 1.69 0 001.19-2.88c-.04-.04-.08-.07-.12-.1.06.01.13.02.19.02.67 0 1.32-.27 1.79-.74.42-.42.67-.98.72-1.58.35.31.81.5 1.29.5.52 0 1.02-.21 1.39-.58.37-.37.58-.88.58-1.39 0-.52-.21-1.03-.58-1.4-.73-.73-2.05-.73-2.78 0-.27.27-.45.61-.53.98-.03-.04-.06-.08-.09-.11-.66-.65-1.66-.84-2.53-.59-.08-.14-.16-.28-.28-.39-.02-.02-.05-.04-.08-.06.11-.07.21-.14.3-.23.07-.07.13-.15.19-.23.02.02.03.04.05.06.31.31.75.49 1.19.49.45 0 .88-.18 1.2-.49.31-.32.49-.75.49-1.2 0-.44-.18-.88-.49-1.19-.63-.63-1.76-.63-2.39 0-.07.07-.13.15-.19.23-.02-.02-.03-.04-.05-.06l-.02-.02c.32-.43.5-.95.5-1.5 0-.66-.27-1.32-.74-1.79zm-2.07 5.73c.01.01.02.01.02.02-.01.01-.03.01-.04.02.01-.02.01-.03.02-.04zM143.44 54c-.09.09-.17.19-.25.3-.06-.1-.12-.19-.19-.27a2.52 2.52 0 00-.19-.81c-.13 1.14-.24 2.29-.33 3.45.11-.05.22-.12.32-.2.12.41.33.8.64 1.11.31.32.72.54 1.15.66.08.24.21.47.39.65a1.705 1.705 0 002.39 0c.31-.32.49-.75.49-1.2 0-.34-.11-.67-.3-.95.12-.3.19-.62.19-.94 0-.67-.27-1.32-.74-1.8-.94-.95-2.64-.94-3.57 0zM158.94 58.11c-.47.47-.74 1.12-.74 1.79 0 .46.13.9.36 1.28-.23.08-.44.2-.61.36-.31.32-.49.75-.49 1.2 0 .44.18.88.49 1.19.32.31.75.49 1.2.49.44 0 .87-.18 1.19-.49.16-.16.28-.35.37-.56 0-2 .09-3.99.26-5.95-.74-.06-1.51.16-2.03.69zM153.56 38.81c-.47.47-.74 1.12-.74 1.79 0 .44.13.87.34 1.25-.09.21-.13.43-.13.65 0 .44.18.88.49 1.19.32.31.75.49 1.2.49.11 0 .21-.01.31-.03-.06.18-.1.37-.1.56a1.688 1.688 0 001.68 1.69 1.688 1.688 0 001.2-2.88c-.39-.39-.98-.54-1.52-.44.02-.05.03-.1.05-.15.3-.13.57-.31.8-.54.11-.11.21-.24.3-.37.03 0 .06.01.09.01.44 0 .88-.18 1.19-.49.32-.32.5-.75.5-1.2 0-.44-.18-.88-.5-1.19-.42-.43-1.08-.56-1.66-.4-.96-.88-2.59-.86-3.5.06zM147.86 33.04c.01-.02.02-.04.02-.06 0 .02-.01.04-.02.06zM149.54 37.64c.3-.3.51-.67.63-1.07.37-.05.73-.21.99-.47.32-.32.5-.75.5-1.2 0-.44-.18-.88-.5-1.19-.6-.6-1.62-.62-2.27-.09a2.56 2.56 0 00-1.16-.26c-.97 2.45-1.8 4.97-2.52 7.54.2.08.42.13.64.13.43 0 .85-.17 1.16-.46-.13.31-.21.65-.21.99 0 .66.27 1.32.74 1.79s1.12.74 1.79.74c.67 0 1.32-.27 1.79-.74s.74-1.13.74-1.79c0-.67-.27-1.32-.74-1.79-.94-.94-2.64-.94-3.58 0-.04.04-.07.09-.11.13.06-.18.11-.37.11-.56 0-.37-.14-.73-.36-1.02.19.04.38.07.57.07.67-.01 1.32-.28 1.79-.75zM145.01 41.64a77.58 77.58 0 00-1.08 4.62c.56-.07 1.1-.31 1.5-.71.47-.47.74-1.12.74-1.79 0-.66-.27-1.32-.74-1.79-.13-.13-.27-.23-.42-.33zM185.3 85.75c.08.05.18.1.27.14-.08-.02-.16-.05-.24-.06.31.94.65 1.84 1.02 2.68.24-.3.37-.66.37-1.05 0-.44-.18-.87-.5-1.19-.11-.11-.24-.2-.38-.27.27.09.55.15.84.15.66 0 1.31-.27 1.78-.74s.74-1.12.74-1.79c0-.11-.02-.22-.03-.32.22-.08.43-.21.6-.39.31-.31.49-.75.49-1.19s-.18-.88-.49-1.19c-.63-.63-1.76-.63-2.39 0-.18.17-.31.39-.39.62-.76-.09-1.55.13-2.1.68-.2.19-.35.42-.47.66.24 1.15.54 2.23.88 3.26zM185.73 13.7a2.544 2.544 0 002.53 2.54 2.547 2.547 0 002.53-2.54c0-.66-.27-1.32-.74-1.79-.16-.16-.36-.29-.56-.39a1.663 1.663 0 00-.36-1.86c-.63-.63-1.75-.63-2.39 0-.31.32-.49.75-.49 1.2 0 .35.11.69.32.97-.03.03-.07.05-.1.08-.47.47-.74 1.13-.74 1.79zM200.6 6.43c0-.67-.28-1.32-.75-1.79-.94-.95-2.63-.95-3.58 0-.47.47-.74 1.12-.74 1.79 0 .66.27 1.32.74 1.79.17.16.36.29.55.4-.09.21-.14.43-.14.65 0 .45.18.88.5 1.2.31.31.75.49 1.19.49.44 0 .88-.18 1.19-.49.32-.32.5-.75.5-1.2 0-.35-.12-.68-.32-.97.03-.03.07-.05.1-.08.48-.48.76-1.13.76-1.79zM214.31 16.34c-.31.32-.52.71-.64 1.13-.05-.08-.11-.15-.17-.22-.63-.62-1.76-.62-2.39.01a1.688 1.688 0 000 2.38c.31.32.75.5 1.19.5.45 0 .88-.18 1.2-.5.13-.13.23-.29.31-.45.12.27.29.52.5.73a2.512 2.512 0 003.58 0c.47-.47.74-1.12.74-1.79 0-.66-.27-1.31-.74-1.79-.95-.94-2.64-.94-3.58 0zM218.74 45.77c-.47.47-.74 1.12-.74 1.79 0 .66.27 1.32.74 1.79s1.12.74 1.79.74c.67 0 1.32-.27 1.79-.74.04-.04.07-.09.11-.13a1.687 1.687 0 001.37-1.66c0-.45-.18-.88-.49-1.19-.23-.23-.54-.38-.86-.44-.04-.05-.08-.11-.13-.16-.95-.95-2.64-.95-3.58 0zM227.38 49.69c-.3.31-.48.73-.48 1.15 0 .43.18.85.48 1.15.3.31.72.48 1.15.48.05 0 .1-.01.15-.01-.1.14-.17.31-.17.49 0 .23.1.45.26.61.09.1.22.16.35.21a2.544 2.544 0 00.7 2.23c.48.47 1.13.74 1.79.74.18 0 .36-.02.54-.06.23.11.48.17.73.17.16 0 .32-.03.47-.08-.22-1.64-.49-3.27-.79-4.89-.85-.32-1.87-.17-2.58.41a.897.897 0 00-.42-.19c.05-.04.09-.07.13-.11.3-.3.48-.72.48-1.15 0-.42-.18-.84-.48-1.15-.62-.6-1.71-.6-2.31 0zM222.22 17.61c-.47.47-.74 1.12-.74 1.79 0 .66.27 1.32.74 1.79.46.46 1.09.72 1.74.74-.17.35-.27.73-.27 1.11 0 .67.27 1.32.75 1.79a2.527 2.527 0 003.57 0c.48-.47.75-1.12.75-1.79 0-.34-.07-.67-.21-.99.1-.22.17-.46.17-.71 0-.44-.18-.88-.5-1.19-.15-.15-.34-.27-.54-.35.29-.03.56-.14.8-.31.18.14.37.26.58.34-.05.17-.09.34-.09.51 0 .44.18.88.49 1.19.32.32.75.5 1.2.5.44 0 .87-.18 1.19-.5.31-.32.49-.75.49-1.19 0-.43-.17-.84-.45-1.15a2.532 2.532 0 00-.08-3.49c-.94-.94-2.63-.94-3.58 0-.22.22-.4.49-.52.78-.51-.06-1.04.08-1.42.45-.21.21-.35.47-.42.75a.27.27 0 00-.07-.08c-.95-.93-2.64-.93-3.58.01zm4.31 1.9c.1.07.21.13.32.18-.12.01-.23.03-.35.07l.03-.25zM223.27 28.57c0 .45.18.88.5 1.2.31.31.75.49 1.19.49.44 0 .88-.18 1.19-.49l.01-.01c-.39-.99-.78-1.94-1.16-2.85-.45-.01-.9.14-1.22.47-.33.31-.51.75-.51 1.19zM193.39 66.3c-.21.21-.36.47-.43.75-.09-.51-.33-.99-.7-1.35-.94-.94-2.63-.94-3.58 0-.35.35-.58.79-.68 1.27-.65-.44-1.6-.38-2.16.18-.07.07-.13.15-.19.23-.43-.31-.96-.48-1.49-.48-.24 1.68-.4 3.34-.48 4.98.15.03.31.05.46.05.36 0 .72-.09 1.04-.23.08.01.15.02.23.02.44 0 .88-.18 1.19-.49.32-.32.5-.75.5-1.2.42-.02.83-.19 1.12-.48.13-.13.23-.28.31-.44.05.06.09.13.15.18.38.38.88.62 1.41.7-.3.07-.59.21-.81.43a1.679 1.679 0 000 2.39c.31.31.75.49 1.19.49a1.69 1.69 0 001.69-1.68c0-.45-.18-.88-.5-1.2a1.68 1.68 0 00-.81-.43c.53-.08 1.03-.32 1.41-.7.37-.37.61-.85.7-1.36.08.28.23.55.43.76.31.32.75.5 1.19.5.45 0 .88-.18 1.2-.5.31-.31.49-.75.49-1.19 0-.44-.18-.88-.49-1.19-.63-.64-1.76-.64-2.39-.01zM187.94 54.63c.44 0 .88-.18 1.19-.5.32-.32.5-.75.5-1.19 0-.45-.18-.88-.5-1.2-.27-.27-.64-.42-1.01-.45-.36 1.03-.71 2.06-1.04 3.09.25.15.55.25.86.25zM202.18 38.8a1.69 1.69 0 001.69-1.68c0-.45-.18-.88-.5-1.2-.63-.63-1.76-.62-2.39 0-.31.32-.49.75-.49 1.2 0 .44.18.87.49 1.19.32.32.75.49 1.2.49zM146.7 49.77c0 .45.18.88.49 1.2.32.31.75.49 1.2.49.44 0 .88-.18 1.19-.49.32-.32.5-.75.5-1.2 0-.44-.18-.87-.5-1.19-.63-.63-1.76-.63-2.39 0-.31.32-.49.75-.49 1.19zM159.07 30.72c.32-.32.5-.75.5-1.2 0-.44-.18-.88-.5-1.19-.62-.63-1.76-.63-2.38 0-.32.31-.5.75-.5 1.19 0 .45.18.88.5 1.2a1.688 1.688 0 002.38 0zM189.73 76.67c0 .44.18.88.5 1.19.15.16.34.28.54.37-.28.3-.43.71-.43 1.11 0 .45.18.88.5 1.2.31.31.75.49 1.19.49.44 0 .88-.18 1.19-.49.32-.32.5-.75.5-1.2 0-.44-.18-.88-.5-1.19-.16-.16-.35-.28-.56-.36.16-.17.27-.37.35-.58.21.05.41.09.63.09.66 0 1.31-.27 1.78-.74s.75-1.12.75-1.79c0-.66-.27-1.32-.75-1.79-.94-.94-2.63-.94-3.58 0-.47.47-.74 1.13-.74 1.79 0 .09.02.18.03.26-.33.06-.65.2-.9.45-.32.31-.5.75-.5 1.19zM158.12 71.68c-.63-.63-1.75-.63-2.38 0-.32.31-.5.75-.5 1.19 0 .44.18.88.5 1.19.31.32.75.5 1.19.5h.02c-.01.07-.02.14-.02.21 0 .67.27 1.32.74 1.79s1.13.74 1.79.74c.31 0 .62-.06.91-.17-.06.16-.1.33-.1.5 0 .37.15.73.41.99s.62.41 1 .41c.23 0 .45-.08.65-.19-.18-.86-.35-1.72-.5-2.57a1.93 1.93 0 00-.34 0c.1-.14.19-.29.26-.45-.15-.91-.29-1.82-.41-2.72-.03-.04-.06-.08-.09-.11-.69-.69-1.79-.87-2.7-.54-.08-.3-.22-.57-.43-.77zM176.29 15.29c-.06-.07-.11-.15-.18-.22-.31-.32-.71-.52-1.14-.62a1.68 1.68 0 00-.4-.68c-.63-.63-1.76-.63-2.39 0-.31.31-.49.74-.49 1.19 0 .33.1.67.29.94-.02.05-.03.1-.05.15-.06-.34-.22-.67-.47-.92-.49-.48-1.24-.59-1.86-.34-.08-.27-.22-.52-.41-.72-.64-.63-1.76-.63-2.39 0-.31.32-.49.75-.49 1.19 0 .31.09.62.25.88-.3.32-.48.74-.48 1.18 0 .45.18.88.5 1.2.31.31.75.49 1.19.49.44 0 .87-.18 1.19-.49.21-.21.36-.48.43-.76.26.16.57.25.88.25.44 0 .88-.18 1.19-.49.15-.15.26-.32.35-.51.04.6.29 1.2.72 1.63.18.18.39.31.61.43-.24.08-.47.2-.65.38-.31.32-.49.75-.49 1.19 0 .45.18.88.5 1.2.31.31.75.49 1.19.49.44 0 .88-.18 1.19-.49.32-.32.5-.75.5-1.2 0-.44-.18-.87-.5-1.19-.04-.04-.09-.07-.14-.11.52-.09 1-.33 1.37-.7.07-.07.12-.14.18-.22.18.06.37.1.56.1.17 0 .33-.03.49-.08-.38.45-.6 1.03-.6 1.62a2.544 2.544 0 001.16 2.13c-.31.06-.6.21-.82.43-.32.31-.5.75-.5 1.19 0 .17.03.33.08.49.92-.59 1.87-1.13 2.86-1.61-.02-.02-.04-.05-.06-.07-.01-.01-.03-.02-.04-.04.17-.01.34-.04.51-.09.25-.12.5-.22.75-.33a2.544 2.544 0 001.13-2.11c0-.57-.21-1.13-.56-1.57h.04c.52 0 1.03-.21 1.4-.58.36-.36.57-.87.57-1.39 0-.52-.21-1.03-.57-1.39-.74-.74-2.05-.74-2.79 0-.36.36-.57.87-.57 1.39 0 .38.12.76.32 1.08-.46-.06-.94-.01-1.38.16.18-.27.27-.6.27-.92 0-.44-.18-.88-.49-1.2-.45-.41-1.16-.53-1.76-.34zM189.66 1.57c.25.14.52.22.81.22.28 0 .56-.08.81-.22-.13 0-.25-.01-.38-.01-.41-.02-.83.01-1.24.01zM173.5 5c.09.13.19.26.3.37.19.19.42.34.65.46-.02.02-.04.03-.05.04-.32.31-.5.74-.5 1.19 0 .44.18.88.5 1.19.31.32.75.5 1.19.5.32 0 .64-.1.91-.28.08.27.22.53.42.73.31.32.75.5 1.19.5.45 0 .88-.19 1.19-.5.32-.31.5-.75.5-1.19 0-.44-.18-.88-.5-1.2-.55-.54-1.46-.61-2.1-.21a1.65 1.65 0 00-.43-.73c-.02-.02-.04-.03-.05-.04.24-.12.46-.27.65-.46.37-.37.61-.84.7-1.35.08.28.22.55.43.75.31.32.75.5 1.19.5.45 0 .88-.18 1.19-.5.32-.31.5-.75.5-1.19 0-.36-.13-.72-.34-1.02A44.2 44.2 0 00173.5 5z"/><path class="st0" d="M155.91 54.28c-.63-.63-1.76-.63-2.39 0-.31.31-.49.75-.49 1.19 0 .44.18.88.49 1.19.07.07.15.13.22.18-.18.36-.29.75-.29 1.16 0 .67.27 1.32.74 1.79s1.13.74 1.79.74c.67 0 1.32-.27 1.79-.74s.74-1.12.74-1.79c0-.66-.27-1.32-.74-1.79-.37-.37-.86-.59-1.38-.67 0-.02.01-.05.01-.07 0-.44-.18-.88-.49-1.19zM190.68 17.5c0 .45.18.88.5 1.19.18.19.41.32.65.4.11.42.32.81.63 1.12.92.1 1.88.26 2.86.52.27-.12.53-.29.74-.5.47-.47.74-1.12.74-1.79 0-.67-.27-1.32-.74-1.79-.71-.7-1.82-.88-2.73-.54-.06-.04-.13-.07-.19-.1.4-.03.8-.19 1.08-.48.32-.32.5-.75.5-1.2 0-.36-.12-.71-.34-.99.17-.03.33-.08.49-.14-.05.16-.09.32-.09.49 0 .45.19.88.5 1.2.31.31.75.49 1.19.49.45 0 .88-.18 1.2-.49.28-.29.44-.66.48-1.06.08.15.17.3.29.42.23.23.53.39.84.46-.17.1-.34.22-.48.36-.47.47-.75 1.12-.75 1.79 0 .66.28 1.32.75 1.79.26.26.59.46.94.58-.13.24-.21.51-.21.79 0 .45.18.88.5 1.19.31.32.75.5 1.19.5.24 0 .47-.06.69-.16-.18.3-.3.62-.35.97-.59-.46-1.48-.46-2.08-.01.87.53 1.72 1.17 2.53 1.93-.18.25-.36.51-.53.76.08-.06.16-.12.23-.18.17-.17.3-.37.38-.59.06.08.12.16.19.22.47.47 1.12.74 1.79.74.66 0 1.31-.27 1.78-.74a2.512 2.512 0 000-3.58c-.8-.8-2.14-.91-3.11-.35.11-.22.17-.47.17-.71 0-.44-.18-.88-.5-1.19a.642.642 0 00-.13-.1c.03-.03.07-.05.1-.08.26-.26.46-.59.58-.94.24.13.51.21.79.21.44 0 .88-.18 1.19-.49.32-.32.5-.75.5-1.2 0-.44-.18-.88-.5-1.19-.63-.63-1.76-.63-2.38 0-.04.04-.07.09-.11.13a.55.55 0 01-.07-.09c-.45-.45-1.07-.68-1.69-.7.05-.04.1-.07.14-.12.31-.31.49-.75.49-1.19 0-.44-.18-.88-.49-1.19-.63-.63-1.75-.63-2.39 0-.28.28-.44.66-.48 1.05-.08-.15-.17-.3-.29-.42-.39-.39-.98-.54-1.52-.44.2-.37.32-.79.32-1.22 0-.66-.27-1.32-.74-1.79-.95-.94-2.64-.94-3.58.01-.47.47-.74 1.12-.74 1.78 0 .67.27 1.32.74 1.8.06.06.13.11.2.16-.19.08-.37.19-.52.34-.32.31-.5.75-.5 1.19 0 .45.18.88.5 1.2.13.13.28.23.44.31-.41.02-.82.17-1.11.46-.3.32-.48.76-.48 1.2zM192.57 40.62c.06.08.12.16.19.22.31.32.75.5 1.19.5.44 0 .88-.18 1.19-.5.32-.31.5-.75.5-1.19a1.656 1.656 0 00-1.06-1.55v-.03c0-.35-.08-.7-.22-1.02-.61 1.17-1.21 2.36-1.79 3.57zM224.72 7.3c.17.17.37.3.6.39-.22.38-.36.82-.36 1.27 0 .67.27 1.32.74 1.79s1.12.74 1.79.74c.05 0 .1-.01.15-.01a1.67 1.67 0 002.31-.07c.31-.31.49-.74.49-1.19 0-.41-.16-.82-.43-1.12 0-.05.01-.09.01-.14 0-.67-.27-1.32-.74-1.79-.45-.46-1.09-.69-1.72-.7.03-.12.04-.24.04-.36 0-.04-.01-.09-.01-.13-1.09.19-2.18.43-3.25.74.08.21.21.41.38.58zM216.8 21.37a1.688 1.688 0 000 2.38c.05.05.1.08.15.12-.34.44-.53.98-.53 1.53 0 .67.27 1.32.74 1.79s1.12.74 1.79.74c.66 0 1.32-.27 1.79-.74s.73-1.11.74-1.77c.18.06.36.1.55.1a1.688 1.688 0 001.69-1.69c0-.44-.18-.88-.5-1.19-.62-.63-1.75-.63-2.38 0-.2.2-.34.45-.42.71-.24-.17-.52-.28-.8-.35.04-.15.07-.3.07-.45 0-.44-.18-.88-.5-1.19-.63-.62-1.76-.62-2.39.01zM218.39 30.54c-.32.32-.5.75-.5 1.2 0 .44.18.88.5 1.19.31.32.75.5 1.19.5.06 0 .12-.01.17-.02-.31.43-.49.96-.49 1.49 0 .67.27 1.32.74 1.79.25.25.55.43.87.56-.28.31-.44.72-.44 1.13 0 .45.18.88.49 1.2.31.31.75.49 1.19.49.45 0 .88-.18 1.2-.49.31-.32.49-.75.49-1.2 0-.44-.18-.88-.49-1.19-.06-.06-.12-.1-.18-.15.16-.1.32-.22.46-.35.47-.47.74-1.12.74-1.79 0-.66-.27-1.32-.74-1.79-.64-.64-1.64-.84-2.51-.6.13-.24.2-.5.2-.77 0-.45-.18-.88-.5-1.2-.64-.62-1.76-.62-2.39 0zM203.2 9.98c-.32.31-.5.75-.5 1.19 0 .45.18.88.5 1.2a1.688 1.688 0 002.88-1.2c0-.44-.18-.88-.49-1.19-.64-.63-1.76-.63-2.39 0zM208.12 50.48c-.63-.63-1.76-.63-2.39 0-.31.31-.49.75-.49 1.19 0 .45.18.88.49 1.2.32.31.75.49 1.19.49.12 0 .24-.02.36-.04.35-.84.72-1.67 1.09-2.5-.07-.13-.15-.24-.25-.34zM218.21 56.1c0 .44.18.88.49 1.2.32.31.75.49 1.2.49.44 0 .88-.18 1.19-.49.31-.32.49-.75.49-1.2 0-.44-.18-.88-.49-1.18.35-.05.69-.21.95-.47.31-.32.49-.75.49-1.19 0-.45-.18-.88-.49-1.2-.63-.63-1.76-.63-2.39 0-.31.32-.49.75-.49 1.2 0 .44.18.87.49 1.19l.01.01c-.36.05-.7.19-.96.45-.31.31-.49.75-.49 1.19zM218.39 67.11a1.663 1.663 0 001.85.35c.1.01.19.03.29.03.66 0 1.32-.27 1.79-.74s.74-1.12.74-1.79c0-.66-.27-1.32-.74-1.79-.95-.94-2.64-.94-3.58 0-.47.47-.74 1.13-.74 1.79 0 .1.02.19.03.29-.09.21-.14.43-.14.66 0 .44.18.88.5 1.2zM226.93 80.54c-.32.31-.5.74-.5 1.19 0 .44.18.88.5 1.19.31.32.75.5 1.19.5.45 0 .88-.18 1.2-.5.31-.31.49-.75.49-1.19 0-.45-.18-.88-.5-1.19-.62-.63-1.75-.63-2.38 0zM214.2 80.89c.44 0 .88-.18 1.19-.5.32-.31.5-.75.5-1.19 0-.45-.18-.88-.5-1.2-.3-.29-.71-.44-1.12-.46-.33 1.06-.72 2.04-1.19 2.91.3.28.71.44 1.12.44zM203.02 64.65c0 .3.09.59.24.85.17-.76.36-1.52.57-2.28-.11.07-.22.14-.31.23-.32.32-.5.75-.5 1.2zM163.26 32.79c.44 0 .88-.18 1.19-.49.32-.32.5-.75.5-1.2 0-.44-.18-.87-.5-1.19-.63-.63-1.76-.63-2.38 0-.32.31-.5.75-.5 1.19a1.688 1.688 0 001.69 1.69zM150.04 28.5c.32.32.76.5 1.2.5.44 0 .88-.18 1.19-.5.31-.31.5-.75.5-1.19 0-.45-.19-.88-.5-1.2-.29-.29-.7-.45-1.12-.46-.48.89-.94 1.8-1.38 2.71.03.04.06.1.11.14zM164.13 10.47c.06-.06.1-.12.15-.18-.24.18-.47.37-.71.55.21-.09.4-.21.56-.37zM172.82 9.66c-.31.32-.49.75-.49 1.19 0 .45.18.88.49 1.2.32.31.75.49 1.2.49.44 0 .88-.18 1.19-.49.31-.32.5-.75.5-1.2 0-.44-.18-.87-.5-1.19-.63-.63-1.76-.63-2.39 0zM165.54 23.58c-.31.32-.49.76-.49 1.2 0 .44.18.88.5 1.19.31.32.74.5 1.19.5.44 0 .88-.18 1.19-.5.32-.31.5-.75.5-1.19 0-.24-.06-.48-.16-.7.31.19.67.31 1.04.35a1.663 1.663 0 00.35 1.85c.14.14.3.25.48.33-.51-.07-1.06.08-1.43.46-.2.2-.34.46-.42.73-.64-.4-1.56-.34-2.11.21-.32.32-.5.75-.5 1.2 0 .44.18.88.5 1.19.31.31.75.5 1.19.5.45 0 .88-.19 1.19-.5.21-.2.35-.46.43-.73.25.17.54.26.84.27.08.12.16.23.26.34.02.02.05.04.07.06.77-1.04 1.65-2.02 2.6-2.93-.48-.4-1.14-.53-1.74-.4-.12-.1-.24-.19-.38-.25.07.01.14.02.21.02a1.688 1.688 0 001.69-1.69c0-.44-.18-.87-.49-1.19-.15-.15-.34-.27-.54-.34.38-.45.61-1.03.61-1.63 0-.67-.27-1.32-.74-1.79-.95-.95-2.64-.94-3.58 0-.47.47-.74 1.12-.74 1.79 0 .47.14.93.39 1.33-.63-.27-1.41-.17-1.91.32zM175.84 24.22c-.63-.63-1.75-.63-2.38 0-.32.31-.5.74-.5 1.19 0 .44.18.88.5 1.19.03.03.07.05.1.08.82-.72 1.69-1.39 2.6-2.01a1.76 1.76 0 00-.32-.45zM200.98 50.48c-.31.31-.49.75-.49 1.19 0 .45.18.88.49 1.2.32.31.76.49 1.2.49.44 0 .88-.18 1.19-.49.32-.32.5-.75.5-1.2 0-.44-.18-.88-.5-1.19-.63-.63-1.76-.63-2.39 0zM199.4 30.55a1.688 1.688 0 000 2.38c.32.32.75.5 1.2.5a1.69 1.69 0 001.19-2.88c-.63-.63-1.76-.63-2.39 0zM204.47 34.03c-.32.31-.5.74-.5 1.19 0 .44.18.88.5 1.19.31.32.75.5 1.19.5.44 0 .88-.18 1.19-.5.32-.31.5-.75.5-1.19 0-.45-.18-.88-.5-1.19-.62-.63-1.75-.64-2.38 0zM213.5 49.38c.31-.31.49-.75.49-1.19 0-.44-.18-.88-.49-1.19-.32-.32-.76-.47-1.2-.47.28 1.04.55 2.09.8 3.14.14-.08.28-.17.4-.29zM216.17 37.51a1.688 1.688 0 000 2.38c.31.32.75.5 1.19.5.45 0 .88-.18 1.2-.5a1.688 1.688 0 000-2.38c-.63-.63-1.76-.63-2.39 0zM224.54 33.64c0 .44.18.87.49 1.19.32.31.75.49 1.2.49.44 0 .87-.18 1.19-.49.17-.18.3-.39.38-.62-.24-.68-.48-1.36-.72-2.01-.64-.36-1.52-.27-2.05.25-.31.31-.49.74-.49 1.19zM221.55 40.67c-.32.31-.49.75-.49 1.19 0 .45.18.88.49 1.2.31.31.75.49 1.19.49a1.688 1.688 0 001.2-2.88c-.63-.63-1.75-.63-2.39 0zM223.87 45.66c0 .37.15.73.41 1a1.409 1.409 0 001.99 0c.25-.26.39-.6.4-.96.28-.08.54-.22.75-.43a.7.7 0 00.08-.1c.03.62.29 1.22.73 1.65.47.47 1.13.74 1.79.74.55 0 1.08-.19 1.51-.51-.35-1.52-.73-3.01-1.13-4.48-.78-.11-1.6.11-2.17.67-.14.14-.26.3-.36.48-.07-.31-.22-.6-.45-.83-.63-.64-1.76-.63-2.39 0-.31.31-.49.74-.49 1.19 0 .13.02.26.05.39-.11.06-.22.11-.31.2-.26.26-.41.62-.41.99zM209.21 8.08c-.31.31-.49.75-.49 1.19 0 .45.18.88.49 1.2.32.31.75.49 1.2.49.32 0 .64-.1.91-.27.08.27.22.53.42.73.12.12.27.21.42.29-.26.41-.41.89-.41 1.38 0 .67.27 1.32.74 1.79s1.12.74 1.79.74c.67 0 1.32-.27 1.79-.74s.74-1.12.74-1.79c0-.66-.27-1.32-.74-1.79-.2-.2-.45-.36-.71-.47-.15.1-.3.19-.45.29-.88-.84-1.81-1.63-2.77-2.37-.04.02-.09.04-.13.06-.02-.07-.04-.14-.07-.21-.45-.34-.9-.66-1.36-.98-.49-.05-1.01.1-1.37.46zM221.24 9.83c.31.32.74.5 1.19.5.44 0 .88-.18 1.19-.5.32-.31.5-.75.5-1.19a1.673 1.673 0 00-1.03-1.54c-.73.24-1.45.51-2.17.81-.11.23-.17.48-.17.73-.01.44.17.88.49 1.19zM228.05 14.9c.32-.32.5-.75.5-1.2 0-.44-.18-.88-.5-1.19-.63-.63-1.76-.63-2.38 0-.32.31-.5.75-.5 1.19 0 .45.18.88.49 1.2.32.31.75.49 1.2.49.44 0 .88-.18 1.19-.49zM185.65 4.28c-.63-.63-1.75-.63-2.39 0-.31.32-.49.75-.49 1.2a1.69 1.69 0 003.38 0c0-.45-.18-.88-.5-1.2zM155.98 18.55c.45 0 .88-.18 1.2-.49.31-.32.49-.75.49-1.19 0-.16-.03-.31-.07-.45-.61.69-1.2 1.39-1.76 2.12.05 0 .09.01.14.01zM154.47 23.76c.32.31.75.49 1.2.49.44 0 .87-.18 1.19-.49.31-.32.49-.75.49-1.2 0-.44-.18-.88-.49-1.19-.63-.63-1.76-.63-2.39 0-.31.31-.49.75-.49 1.19 0 .44.18.88.49 1.2zM156.69 24.53c-.19.2-.33.43-.41.69-.02-.02-.03-.04-.05-.06-.63-.62-1.76-.62-2.39.01-.32.31-.5.75-.5 1.19 0 .44.18.88.5 1.19.32.32.75.5 1.19.5a1.672 1.672 0 001.61-1.19c.02.02.03.04.05.06.31.31.75.49 1.19.49.44 0 .88-.18 1.19-.49.32-.31.5-.75.5-1.19 0-.45-.18-.88-.5-1.2-.63-.63-1.76-.63-2.38 0zM163.65 17.89c-.32.31-.5.75-.5 1.19 0 .44.18.88.5 1.2a1.688 1.688 0 002.88-1.2c0-.44-.18-.87-.49-1.19-.64-.63-1.77-.63-2.39 0z"/><path class="st0" d="M175.36 11.88c-.32.31-.5.74-.5 1.19 0 .44.18.88.5 1.19.31.32.75.5 1.19.5.44 0 .88-.18 1.19-.5.32-.31.5-.75.5-1.19 0-.44-.18-.88-.5-1.19-.63-.63-1.76-.63-2.38 0zM158.9 32.76c-.31.31-.49.75-.49 1.19 0 .45.18.88.49 1.2.32.31.75.49 1.2.49.09 0 .19-.01.28-.03-.02.01-.03.02-.05.04a1.8 1.8 0 00-.38.6c-.07-.12-.15-.23-.24-.33-.63-.62-1.76-.62-2.39 0-.31.32-.49.75-.49 1.2 0 .44.18.88.49 1.19.31.31.75.49 1.19.49.45 0 .88-.18 1.2-.49.17-.17.29-.38.38-.6.07.12.15.23.25.33.13.13.28.23.44.31-.16.08-.32.17-.45.3-.31.31-.49.75-.49 1.19 0 .45.18.88.5 1.2.07.07.14.13.22.18-.26.07-.51.2-.71.4a1.688 1.688 0 001.19 2.88c.45 0 .88-.18 1.2-.5.14-.14.24-.3.32-.47a.7.7 0 00.14.16c.1.1.21.18.33.25-.12.24-.19.5-.19.77 0 .15.03.29.06.43-.01-.01-.02-.03-.03-.04-.63-.63-1.76-.63-2.39 0-.31.31-.49.75-.49 1.19 0 .45.18.88.49 1.2.32.31.75.49 1.2.49.31 0 .62-.09.89-.26.57-2.3 1.26-4.54 2.08-6.72-.63-.3-1.45-.2-1.95.3-.14.14-.25.3-.33.48-.04-.05-.08-.11-.13-.16-.07-.07-.14-.12-.22-.17a1.664 1.664 0 001.2-1.61c0-.03-.01-.07-.01-.1l.12.15c.31.32.75.5 1.19.5.13 0 .26-.02.39-.05.46-1.18.96-2.34 1.5-3.48 0-.02.01-.04.01-.06 0-.67-.27-1.32-.74-1.79 0 0-.01-.01-.02-.01.04 0 .08.01.13.01.45 0 .88-.18 1.19-.5.32-.31.5-.75.5-1.19 0-.44-.18-.88-.5-1.19-.63-.63-1.76-.63-2.38 0-.32.31-.5.75-.5 1.19 0 .38.14.76.39 1.06-.84-.19-1.78.02-2.39.63-.07.07-.12.14-.18.22-.23-.05-.47-.06-.7-.02.02-.02.05-.03.07-.06.31-.32.49-.75.49-1.2 0-.44-.18-.88-.49-1.19-.63-.63-1.76-.63-2.39 0zM151.03 48.3c-.47.47-.74 1.13-.74 1.79 0 .66.27 1.32.74 1.79s1.12.74 1.79.74c.66 0 1.32-.27 1.79-.74s.74-1.13.74-1.79c0-.67-.27-1.32-.74-1.79-.94-.94-2.64-.94-3.58 0zM160.2 64.44c-.47.47-.74 1.12-.74 1.79 0 .66.27 1.31.74 1.79.2.2.43.35.68.47-.1-1.48-.16-2.95-.17-4.42-.19.1-.36.22-.51.37zM159.15 54.52c0 .67.27 1.32.74 1.79.31.31.7.52 1.12.64.24-2.54.62-5.05 1.15-7.5-.58-.16-1.25-.04-1.69.4-.31.31-.49.75-.49 1.19 0 .44.18.88.49 1.19.02.02.04.03.07.05-.24.11-.46.26-.66.45-.46.47-.73 1.12-.73 1.79zM200.35 59.34c-.32.31-.5.75-.5 1.19 0 .45.19.88.5 1.2.31.31.75.49 1.19.49.45 0 .88-.18 1.2-.49.31-.32.49-.76.49-1.2 0-.44-.18-.88-.49-1.19-.63-.63-1.76-.63-2.39 0zM194.51 53.64c-.63-.63-1.75-.63-2.39 0-.31.32-.49.75-.49 1.2 0 .44.18.88.49 1.19.32.31.75.49 1.2.49a1.69 1.69 0 001.69-1.68c0-.45-.18-.89-.5-1.2zM190.79 52.41c.44 0 .88-.18 1.19-.49.32-.32.5-.76.5-1.2 0-.44-.18-.88-.5-1.19-.63-.63-1.75-.63-2.39 0-.31.31-.49.75-.49 1.19 0 .44.18.88.5 1.2.31.31.75.49 1.19.49zM196.41 33.56c.3-.29.47-.7.49-1.11-.26.44-.51.89-.76 1.33.09-.06.19-.14.27-.22zM183.62 73.51zM195.43 71.92a1.688 1.688 0 001.68 1.69 1.688 1.688 0 001.2-2.88c-.63-.63-1.76-.63-2.39 0-.31.31-.49.75-.49 1.19zM197.5 75.16a1.688 1.688 0 001.2 2.88c.44 0 .88-.18 1.19-.5.31-.31.5-.75.5-1.19 0-.44-.19-.88-.5-1.19-.63-.63-1.75-.63-2.39 0zM216.17 67.56c-.31.32-.49.75-.49 1.2 0 .44.18.88.49 1.19.31.32.75.5 1.19.5.45 0 .88-.18 1.2-.5.31-.31.49-.75.49-1.19 0-.45-.18-.88-.49-1.2-.63-.62-1.76-.62-2.39 0zM221.09 61.72a1.688 1.688 0 000-2.38c-.63-.63-1.76-.63-2.39 0a1.688 1.688 0 001.2 2.88c.44 0 .88-.18 1.19-.5zM226.47 65.2c.31-.31.49-.75.49-1.19 0-.44-.18-.88-.49-1.19-.63-.63-1.76-.63-2.39 0-.31.31-.49.75-.49 1.19 0 .44.18.88.49 1.19.32.32.75.5 1.2.5.44 0 .87-.18 1.19-.5zM225.05 84.99c.14-.25.22-.53.22-.82 0-.45-.18-.88-.49-1.19-.63-.63-1.76-.64-2.39 0-.29.29-.45.68-.48 1.09-.14.25-.22.53-.22.82 0 .44.18.88.49 1.19.32.31.75.49 1.2.49.44 0 .87-.18 1.19-.49.28-.29.45-.68.48-1.09zM144.91 49.06c.06-.18.1-.36.1-.55 0-.44-.18-.88-.49-1.2-.2-.2-.46-.33-.73-.4-.21 1.09-.4 2.18-.57 3.28.03 0 .06.01.09.01-.06.17-.09.34-.09.52 0 .45.18.88.5 1.2.31.31.75.49 1.19.49.44 0 .87-.18 1.19-.49.32-.32.5-.75.5-1.2 0-.44-.18-.88-.5-1.19a1.66 1.66 0 00-1.19-.47zM144.35 60.92c-.32.31-.5.75-.5 1.19 0 .45.18.88.5 1.2.31.31.75.49 1.19.49.44 0 .88-.18 1.19-.49.32-.32.5-.75.5-1.2 0-.44-.18-.88-.5-1.19-.63-.63-1.75-.63-2.38 0zM148.46 52.06c-.31.32-.49.75-.49 1.19 0 .45.18.88.49 1.2.31.31.75.49 1.19.49.45 0 .88-.18 1.2-.49.31-.32.49-.75.49-1.2 0-.44-.18-.87-.49-1.19-.63-.63-1.76-.63-2.39 0zM150.36 56.17c-.32.32-.5.75-.5 1.2 0 .44.19.88.5 1.19.31.31.75.49 1.19.49.45 0 .88-.18 1.2-.49.31-.31.49-.75.49-1.19 0-.45-.18-.88-.49-1.2-.63-.62-1.76-.63-2.39 0zM227.56 64.09a1.688 1.688 0 000 2.38c.32.32.75.5 1.2.5.44 0 .87-.18 1.19-.5.31-.32.49-.75.49-1.19 0-.25-.06-.48-.16-.7.4.24.85.38 1.32.38.24 0 .48-.05.72-.12-.12.23-.19.49-.19.75 0 .03.01.05.01.08-.17.08-.33.17-.46.31-.31.32-.49.75-.49 1.2 0 .44.18.87.49 1.19.31.31.75.49 1.19.49.45 0 .88-.18 1.2-.49.03-.03.05-.06.08-.09.01-1.43-.03-2.88-.11-4.33-.14-.02-.27-.02-.41 0 .17-.22.29-.46.38-.72-.04-.65-.1-1.3-.15-1.96-.12-.23-.27-.45-.46-.64-.94-.95-2.64-.94-3.58 0-.47.47-.74 1.12-.74 1.79 0 .48.14.94.39 1.33-.64-.26-1.43-.15-1.91.34zM224.72 38.31c.31.31.75.49 1.19.49.3 0 .6-.09.85-.24 0 .05-.01.09-.01.14 0 .44.18.88.5 1.19.31.32.74.5 1.19.5.18 0 .35-.04.52-.09.06.08.12.16.19.23.22.22.5.37.8.44-.38-1.33-.78-2.63-1.19-3.91-.4-.07-.82 0-1.18.19 0-.05.01-.09.01-.14 0-.45-.18-.88-.5-1.2-.63-.63-1.75-.62-2.38 0-.32.32-.5.75-.5 1.2.01.45.19.89.51 1.2z"/><path class="st0" d="M200.03 46.05c-.17.17-.29.37-.38.59-.61-.23-1.36-.12-1.83.36-.31.31-.49.75-.49 1.19 0 .32.1.65.28.93-.94-.45-2.16-.3-2.92.45-.47.47-.74 1.12-.74 1.79 0 .66.27 1.31.74 1.79.47.47 1.13.74 1.79.74.15 0 .3-.02.45-.05.01.01.02.03.03.04-.14.07-.27.16-.38.27-.32.32-.5.75-.5 1.19 0 .44.17.86.48 1.17-.47.09-.91.31-1.25.65-.47.47-.74 1.12-.74 1.79 0 .66.27 1.32.74 1.79s1.13.74 1.79.74c.67 0 1.32-.27 1.79-.74s.74-1.13.74-1.79c0-.67-.27-1.32-.74-1.79-.12-.12-.25-.22-.38-.31.17-.08.32-.18.45-.31.11-.11.2-.24.27-.37.13.1.27.19.42.24-.08.2-.13.42-.13.64 0 .44.18.88.5 1.19.31.32.74.5 1.19.5.44 0 .88-.18 1.19-.5.31-.3.48-.72.49-1.14.12.42.33.8.63 1.11.42.42 1 .67 1.59.72.52-1.52 1.08-3.03 1.69-4.54-.97-.69-2.43-.61-3.28.24-.47.47-.74 1.12-.74 1.79 0 .02.01.05.01.07-.08-.24-.21-.46-.4-.63-.17-.17-.37-.29-.58-.36.09-.21.13-.43.13-.66 0-.44-.18-.88-.5-1.19-.4-.4-1-.54-1.55-.43.03-.12.05-.25.05-.38 0-.44-.18-.88-.5-1.19a1.62 1.62 0 00-.46-.31c0-.58-.22-1.13-.57-1.57.18.07.38.11.58.11.45 0 .88-.18 1.2-.5.16-.16.29-.36.37-.58a1.673 1.673 0 001.84-.37c.32-.31.5-.75.5-1.19 0-.3-.09-.59-.24-.85.04 0 .09.01.13.01.45 0 .88-.18 1.19-.5.32-.31.5-.74.5-1.19 0-.44-.18-.88-.5-1.19a1.63 1.63 0 00-1.08-.46c.17-.08.32-.19.45-.32.32-.31.5-.75.5-1.19 0-.45-.18-.88-.5-1.2-.63-.62-1.76-.62-2.39 0-.31.32-.49.75-.49 1.2 0 .44.18.87.49 1.19.29.28.67.45 1.07.49-.16.08-.3.17-.43.29-.32.31-.5.75-.5 1.19 0 .31.09.62.26.88-.47-.04-.98.11-1.33.46z"/><path class="st0" d="M205.34 49.24c.2 0 .39-.04.57-.1.06.07.11.15.17.21.47.47 1.13.74 1.79.74.31 0 .62-.06.91-.18.49-1.04.99-2.07 1.5-3.08-.12-.4-.32-.77-.62-1.07-.94-.95-2.64-.94-3.58 0-.07.07-.12.14-.18.22-.6-.2-1.31-.07-1.75.37-.32.32-.5.75-.5 1.2 0 .44.18.88.5 1.19.31.32.75.5 1.19.5zM153.13 87.25c.37 0 .74-.15 1-.41s.41-.63.41-1-.15-.73-.41-.99c-.52-.52-1.46-.53-1.99 0a1.409 1.409 0 00.99 2.4zM208.89 35.92c-.31.32-.49.75-.49 1.2 0 .44.18.88.49 1.19.32.31.75.49 1.2.49.44 0 .88-.18 1.19-.49a1.673 1.673 0 00.36-1.86c.02.01.04.02.06.02.11.19.24.38.4.54.47.47 1.12.74 1.79.74.66 0 1.31-.27 1.78-.74s.75-1.13.75-1.79c0-.67-.28-1.32-.75-1.79-.87-.87-2.37-.92-3.33-.19-.45-.01-.9.15-1.23.47-.31.31-.49.75-.49 1.19 0 .24.05.47.15.69-.62-.26-1.4-.15-1.88.33zM189.22 65.04c.32-.32.5-.75.5-1.2 0-.44-.18-.87-.5-1.19-.63-.63-1.75-.63-2.39 0-.31.32-.49.75-.49 1.19 0 .45.18.88.5 1.19.31.32.74.5 1.19.5.45 0 .88-.18 1.19-.49zM214.53 25.03c.44 0 .88-.18 1.19-.49.32-.32.5-.75.5-1.2 0-.44-.18-.88-.5-1.19-.63-.63-1.75-.63-2.38 0-.32.31-.5.75-.5 1.19 0 .45.18.88.5 1.2.31.31.75.49 1.19.49zM156.72 64.54c.32-.32.5-.75.5-1.2 0-.44-.18-.88-.5-1.19-.63-.63-1.76-.63-2.38 0-.32.31-.5.75-.5 1.19 0 .45.18.88.5 1.2.31.31.75.49 1.19.49.44 0 .88-.18 1.19-.49zM225.03 51.03a1.688 1.688 0 001.69-1.69c0-.44-.18-.88-.5-1.19-.63-.63-1.75-.63-2.38 0-.32.31-.5.75-.5 1.19 0 .45.18.88.5 1.2.31.31.75.49 1.19.49zM230.41 48.73c-.16.16-.26.38-.26.61 0 .23.1.46.26.62.16.17.39.26.62.26.23 0 .46-.09.62-.26.16-.16.26-.39.26-.62 0-.22-.1-.45-.26-.62-.32-.32-.91-.32-1.24.01zM167.15 11.96c.16-.17.25-.39.25-.62 0-.22-.09-.45-.25-.62-.33-.32-.92-.32-1.24.01a.89.89 0 00-.26.61c0 .23.1.46.26.62a.87.87 0 001.24 0zM218.91 15.23c-.16.16-.26.38-.26.61 0 .23.1.46.26.62.16.17.39.26.62.26.23 0 .46-.09.62-.26.16-.16.26-.39.26-.62 0-.23-.1-.45-.26-.61a.9.9 0 00-1.24 0zM219.41 18.72c-.16.17-.26.39-.26.62 0 .23.1.46.26.62.16.17.39.26.62.26.23 0 .46-.09.62-.26.16-.16.26-.39.26-.62 0-.23-.1-.45-.26-.62-.33-.32-.92-.32-1.24 0zM221.65 28.96c.16-.16.26-.39.26-.62 0-.23-.1-.45-.26-.62a.91.91 0 00-1.24.01.88.88 0 000 1.23c.16.17.39.26.62.26.23 0 .46-.09.62-.26zM200.84 5.04c.31.31.74.49 1.19.49.34 0 .67-.1.94-.29-.1.28-.16.57-.16.87 0 .09.02.18.03.27-.64-.33-1.48-.25-2 .27-.32.31-.5.75-.5 1.19a1.688 1.688 0 002.88 1.2c.28-.28.44-.63.48-1.02.46.39 1.04.62 1.64.62.67 0 1.32-.27 1.79-.74s.74-1.13.74-1.79c0-.06-.01-.11-.02-.17-1.28-.71-2.61-1.34-3.98-1.88-.07.05-.14.11-.2.16.02-.07.03-.15.03-.23-1.01-.39-2.05-.74-3.11-1.04-.17.26-.26.57-.26.88.01.46.19.89.51 1.21z"/><path class="st0" d="M206.84 24.59c0 .45.18.88.5 1.2a1.688 1.688 0 002.38 0 .55.55 0 00.07-.09c.1.01.2.03.3.03.12 0 .23-.02.35-.04-.09.21-.14.44-.14.67 0 .44.18.88.49 1.19a1.696 1.696 0 001.51.47c-.19.36-.31.77-.31 1.19 0 .66.27 1.31.74 1.79.47.47 1.12.74 1.79.74.67 0 1.32-.27 1.79-.74.47-.48.74-1.13.74-1.79 0-.67-.27-1.32-.74-1.79-.7-.7-1.81-.88-2.72-.54.05-.17.09-.34.09-.52 0-.44-.18-.88-.5-1.19a1.63 1.63 0 00-1.08-.46c.33-.43.52-.97.52-1.52 0-.66-.27-1.31-.74-1.79-.94-.94-2.64-.94-3.58 0a2.58 2.58 0 00-.74 1.79v.03a1.673 1.673 0 00-.72 1.37zM222.65 69.39c-.59-.19-1.29-.06-1.73.38-.32.31-.49.75-.49 1.19 0 .2.04.39.11.57-.04-.05-.07-.1-.11-.14-.94-.94-2.64-.94-3.58 0-.47.47-.74 1.12-.74 1.79 0 .66.27 1.32.74 1.79s1.13.74 1.79.74c.38 0 .76-.1 1.11-.27-.17.27-.27.58-.27.9 0 .44.18.88.5 1.19.05.05.11.09.16.14-.1.06-.2.14-.29.22-.2.2-.34.45-.42.72-.71-.04-1.43.18-1.95.69-.47.47-.74 1.12-.74 1.79 0 .41.11.81.3 1.18l-.09-.12c-.94-.95-2.64-.95-3.58 0a2.52 2.52 0 00-.74 1.78c0 .67.27 1.32.74 1.8.1.1.21.19.33.27-.28.42-.44.91-.44 1.41 0 .67.27 1.33.74 1.8.48.47 1.13.74 1.79.74.07 0 .14-.02.21-.02v.02c0 .45.18.88.5 1.2.31.31.75.49 1.19.49.2 0 .39-.04.57-.11-.36.45-.57 1.01-.57 1.59 0 .66.27 1.31.74 1.79.47.47 1.13.74 1.79.74.67 0 1.32-.27 1.79-.74.38-.38.62-.87.71-1.38.28.2.63.32.98.32a1.688 1.688 0 001.69-1.68c0-.33-.1-.64-.27-.91.35.17.73.28 1.12.28.66 0 1.31-.28 1.78-.75.48-.47.75-1.12.75-1.79 0-.18-.02-.36-.06-.53.02 0 .04.01.06.01a1.69 1.69 0 001.19-2.88c-.63-.63-1.76-.63-2.39 0-.28.28-.44.66-.48 1.06-.9-.3-1.96-.12-2.64.56a2.53 2.53 0 00-.75 1.79c0 .59.22 1.16.6 1.61-.6-.21-1.33-.1-1.79.37-.15.15-.27.33-.35.53-.05-.06-.09-.12-.15-.18-.75-.75-1.97-.89-2.91-.45a1.673 1.673 0 00-.22-2.12c-.13-.13-.28-.22-.44-.3.07.01.13.02.2.02.24 0 .47-.06.68-.15.19-.08.36-.2.51-.34.18-.18.31-.39.39-.62.07-.18.11-.38.11-.57 0-.18-.04-.36-.1-.54-.08-.24-.22-.47-.4-.66-.16-.15-.35-.27-.55-.35-.5-.19-1.08-.15-1.54.13-.01.01-.03.01-.04.02-.01 0-.01.01-.02.02-.07.04-.13.1-.19.15-.08-.07-.16-.14-.24-.19.28-.42.44-.92.44-1.43 0-.41-.11-.8-.3-1.16.03.04.06.08.09.11.48.47 1.13.74 1.79.74.67 0 1.32-.27 1.79-.74.47-.48.75-1.13.75-1.79 0-.16-.02-.33-.05-.49.17-.08.33-.19.47-.32.09.14.2.27.32.38.47.47 1.12.74 1.79.74.66 0 1.31-.27 1.79-.74.47-.47.74-1.12.74-1.79 0-.66-.27-1.31-.75-1.79-.88-.88-2.41-.93-3.37-.16.07-.19.11-.38.11-.58 0-.44-.18-.88-.49-1.19-.46-.46-1.18-.58-1.79-.37.37-.46.59-1.02.59-1.6 0-.35-.08-.69-.21-1.01.31.31.74.48 1.16.48.45 0 .88-.18 1.2-.5.3-.3.47-.71.48-1.14.17.06.35.1.54.1.1 0 .2-.01.3-.03.02.02.05.03.07.05a2.54 2.54 0 00-.69 1.73c0 .67.27 1.32.74 1.79s1.12.74 1.79.74c.34 0 .68-.07.99-.21-.29.31-.46.73-.46 1.16 0 .45.18.88.49 1.2.32.31.75.49 1.2.49.44 0 .87-.18 1.19-.49.31-.32.49-.76.49-1.2 0-.23-.05-.45-.14-.66.3-.1.58-.25.8-.48.36-.37.57-.87.57-1.39 0-.52-.21-1.03-.57-1.39-.57-.56-1.46-.69-2.18-.39-.13-.36-.32-.69-.59-.96-.33-.33-.77-.54-1.22-.64.11-.23.17-.48.17-.73 0-.45-.18-.88-.49-1.2-.38-.38-.95-.52-1.48-.44-.65-.45-1.61-.39-2.18.17-.3.28-.48.71-.49 1.13zm-.59 8.38zM197.99 86.23c.29.22.65.35 1.01.35.45 0 .88-.18 1.2-.49.31-.32.49-.75.49-1.2 0-.44-.18-.87-.49-1.19-.48-.48-1.24-.59-1.85-.35-.65-.48-1.64-.44-2.22.14-.31.31-.49.75-.49 1.19a1.69 1.69 0 001.68 1.69c.24 0 .46-.05.67-.14zM192.44 2.02c0 .45.18.88.5 1.2.04.04.09.07.13.11-.32-.14-.67-.18-1.02-.12-.97-.76-2.49-.71-3.37.16-.47.47-.74 1.12-.74 1.79 0 .2.03.4.08.59-.58-.16-1.24-.04-1.68.4-.32.31-.5.75-.5 1.19 0 .45.18.88.5 1.2.31.31.75.49 1.19.49a1.69 1.69 0 001.69-1.68c.38.22.81.34 1.25.34.67 0 1.32-.27 1.79-.74.13-.13.25-.28.35-.44.36-.05.7-.21.95-.47.32-.32.5-.76.5-1.2 0-.44-.18-.87-.5-1.19-.03-.03-.07-.06-.11-.09.21.09.45.15.68.15.44 0 .88-.18 1.19-.49.26-.26.43-.6.48-.97.4.24.85.38 1.31.38.39 0 .76-.1 1.1-.26-1.85-.39-3.76-.65-5.71-.75-.04.12-.06.26-.06.4zM142.36 68.74c.21-.08.41-.21.58-.37.31-.32.49-.75.49-1.19 0-.02-.01-.05-.01-.07.17-.08.33-.18.47-.32.31-.32.49-.75.49-1.2 0-.44-.18-.88-.49-1.19-.37-.36-.9-.51-1.4-.45.33-.43.52-.97.52-1.52 0-.67-.27-1.32-.75-1.79l-.01-.01c-.09 2.69-.05 5.39.11 8.11z"/><path class="st1" d="M343.19 109.49c-3.5-7.5-8.94-12.74-15.71-15.47-.28-.21-.58-.39-.92-.54-4.55-2-23.22-3.89-27.38-3.38a4.885 4.885 0 00-4.25 5.45c.08.68.31 1.31.64 1.87-9.57 6.12-15.43 17.03-15.5 29.93-.09 16.28 9.47 29.96 23.79 34.04 3.52 1 6.98 1.5 10.33 1.5 9.36 0 17.8-3.85 24.06-11.2 9.52-11.17 11.51-28.13 4.94-42.2zm-12.38 35.87c-5.99 7.03-14.61 9.4-24.28 6.64-12.4-3.53-16.74-15.45-16.69-24.58.05-9.17 4.62-21.1 17.33-24.57 3.2-.87 6.05-1.25 8.59-1.25 11.04 0 16.27 7.14 18.56 12.04 4.99 10.65 3.58 23.4-3.51 31.72zM164.04 132.09c-2.88-4.65-10.42-12.42-14.82-14.54a4.868 4.868 0 00-6.52 2.28c-.53 1.1-.59 2.3-.3 3.39-2.18.22-4.36.71-6.48 1.51-7.79 2.93-14.16 9.51-17.94 18.55-5.03 12.01-5.55 30.36 3.37 40.68 4.19 4.85 9.99 7.35 16.76 7.35 2.54 0 5.23-.35 8.02-1.07 17.49-4.49 24.33-21.86 24.87-35.37.37-9.03-2.13-17.02-6.96-22.78zm-2.8 22.4c-.41 10.16-5.25 23.14-17.54 26.29-6.62 1.7-11.64.62-14.95-3.21-5.4-6.24-6.18-19.93-1.75-30.52 2.73-6.53 7.12-11.21 12.36-13.17 1.85-.7 3.74-1.04 5.6-1.04 3.11 0 6.14.96 8.75 2.85.86.62 1.64 1.33 2.36 2.1.29.5.66.93 1.09 1.28 2.9 3.85 4.33 9.16 4.08 15.42z"/><g><path class="st0" d="M168.13 169.15c-.05.06-.08.12-.11.18-.01.02-.03.04-.04.07-.03.09-.03.18-.01.27.07-.19.14-.37.21-.56-.02.02-.03.03-.05.04zM162.78 156.81l-.25.08c-.54.18-1.05.41-1.54.67-.02.13-.04.26-.05.4l.06-.03.51-.27c.15-.07.3-.13.45-.19.14-.06.28-.11.42-.17-.1.94-.09 2.35.78 3.01 1.38 1.05 2.82.71 4.42.19l.08-.03.03-.08c.56-1.85 1.6-4.41 3.33-5.88 0-.15.01-.29.01-.44-1.31 1-2.62 2.85-3.63 6.14-1.48.47-2.81.77-4.04-.17-.85-.65-.71-2.3-.61-2.98l.03-.25z"/><path class="st0" d="M164.57 152.4c.1.04.14.15.2.33.07.21.18.51.53.52 0 .03 0 .06.01.09.01.12.03.32.01.35-1.7 1.17-1.44 3.22-1.25 4.05.14.58.56 1.08 1.08 1.27.49.17 1.02.06 1.5-.31l.07-.06-.01-.09c-.24-2.95 1.04-5.59 3.6-7.43.2-.15.42-.26.64-.35-.01-.12-.01-.23-.02-.35-.28.11-.55.25-.81.43-2.63 1.89-3.96 4.6-3.74 7.63-.37.26-.75.34-1.12.21-.41-.15-.76-.56-.87-1.03-.18-.76-.42-2.65 1.11-3.71.18-.12.15-.38.13-.65-.01-.08-.01-.17-.01-.24v-.21l-.2.04c-.22.04-.25-.03-.34-.28-.07-.19-.15-.42-.38-.52-1.21-.53-2.5-.25-3.45.61v.46c.87-.94 2.13-1.28 3.32-.76zM168.49 148.7c-.69.92-1.2 1.39-1.51 1.39h-.01c-.22-.01-.39-.29-.59-.61-.28-.45-.62-1-1.29-1.12-1.21-.2-2.5.29-3.98 1.51l.03.4c1.48-1.26 2.73-1.78 3.89-1.58.53.09.8.53 1.07.96.24.39.46.75.86.77.46.01.99-.44 1.81-1.52.66-.89 1.26-1.44 1.82-1.78-.02-.12-.03-.24-.05-.35-.64.35-1.31.95-2.05 1.93z"/><path class="st0" d="M168.25 146.75c-.75.6-1.26.86-1.53.79-.2-.05-.3-.27-.46-.64-.2-.47-.45-1.05-1.15-1.29-1.61-.53-3.16.44-4.43 1.59.03.13.06.25.08.37 1.68-1.54 3.01-2.06 4.24-1.65.56.19.76.65.96 1.1.16.38.32.73.68.83.41.1.95-.16 1.82-.86l.55-.44c.49-.39.9-.72 1.29-1.02a4.57 4.57 0 00-.07-.36c-.44.32-.9.69-1.43 1.12l-.55.46zM164.01 142.88c-1-.4-1.95.23-3.15 1.03-.29.19-.59.39-.92.6.04.11.07.21.1.32.35-.22.69-.44 1-.64 1.12-.75 2.01-1.34 2.84-1 .39.16.79.43 1.21.73.98.69 2.09 1.46 3.34.63.45-.3.92-.5 1.34-.67.04-.02.08-.03.12-.05l-.09-.32c-.05.02-.1.04-.16.07-.43.18-.92.38-1.4.7-1.06.71-1.99.06-2.97-.63-.4-.3-.83-.6-1.26-.77zM167.38 139.89c.55.36 1.15.76 1.69 1.18-.07-.19-.14-.38-.21-.58-.43-.31-.88-.61-1.3-.89-1.06-.7-2.06-1.35-2.08-1.84-.01-.13.07-.26.23-.39.12-.09.25-.2.38-.31.26-.21.56-.45.88-.7-.05-.1-.11-.19-.16-.29-.33.26-.65.51-.92.73-.14.11-.26.22-.38.31-.24.2-.36.42-.35.66.02.67.99 1.31 2.22 2.12zM161.06 160.71c.51.16.72.81.8 1.32.25 1.47.75 2.93 2.67 2.61 1.4-.23 4.44-2.24 5.93-4.28.04-.25.08-.51.11-.76-1.2 2.16-4.61 4.47-6.09 4.72-.72.12-1.23-.03-1.6-.46-.32-.37-.53-.97-.69-1.88-.14-.86-.5-1.41-1.03-1.58-.19-.06-.4-.07-.63-.03-.02.12-.05.25-.08.37.23-.06.43-.08.61-.03zM165.79 165.71c-1.36.85-2.7.94-4.12 1.04-.79.05-1.61.11-2.43.31-.4.1-.64.31-.72.62-.08.32.04.71.27 1.13.3.55.79 1.15 1.26 1.66.14.15.28.29.41.43l.04.04c.42.42.76.73.87.82.02.02 1.87 1.62 1.87 2.9 0 .31-.15.37-.26.39-.6.1-2.05-.9-2.45-2.09-.4-1.19-2.32-1.44-4.23-1.65-.07.1-.13.21-.2.31 1.78.2 3.78.43 4.12 1.45.41 1.24 1.84 2.33 2.68 2.33.05 0 .09 0 .13-.01.34-.05.53-.32.53-.72 0-1.43-1.9-3.08-1.98-3.15-.84-.73-2.96-2.83-2.75-3.74.04-.18.2-.31.48-.38.79-.2 1.59-.25 2.37-.3 1.4-.1 2.84-.19 4.28-1.09l.19-.12c1.11-.69 2.49-1.56 3.71-2.45.04-.16.08-.33.11-.49-1.28.97-2.8 1.92-4 2.67l-.18.09z"/><path class="st0" d="M162.38 140.13l-.07-.04-.07.04c-.01 0-.58.28-2.73 1.09-.33.12-.6.19-.85.24.05.1.11.2.16.31.24-.05.5-.12.8-.23 1.78-.67 2.48-.97 2.69-1.07 2.64 1.31 3.31 1.22 3.59 1 .17-.14.22-.37.15-.67-.58-2.31-2.78-3.1-4.23-3.62-.65-.23-1.26-.45-1.34-.69-.01-.02-.03-.1.06-.24.67-1.08 2.1-1.67 3.61-2.31.34-.14.67-.28 1.01-.43-.07-.09-.13-.18-.2-.27-.31.14-.62.27-.94.4-1.49.63-3.04 1.27-3.77 2.44-.12.18-.14.36-.09.52.14.39.73.6 1.54.89 1.47.53 3.49 1.25 4.02 3.39.04.17.03.28-.03.33-.17.13-.83.17-3.31-1.08zM155.47 130.94c-.49-.29-.95-.56-1.36-.72l-.12.31c.38.15.83.42 1.31.7.83.49 1.75 1.02 2.46 1.02.33 0 .61-.11.83-.4.07-.1.1-.21.07-.33-.08-.39-.69-.75-1.69-1.3-1.05-.59-2.35-1.32-2.26-1.96.05-.38.66-.97 3.23-1.57.58-.14 1.11-.26 1.6-.37l-.25-.28c-.44.1-.91.21-1.42.33-2.27.53-3.38 1.12-3.48 1.84-.12.87 1.23 1.63 2.43 2.3.69.39 1.47.83 1.53 1.08 0 .02 0 .04-.02.06-.51.67-1.76-.06-2.86-.71zM163.94 177.24c.08-.12.21-.22.36-.3.1-.15.19-.3.28-.45-.43.1-.73.29-.92.56-.21.31-.25.7-.2 1.13.11-.15.21-.31.32-.47.02-.18.07-.34.16-.47zM159.13 174.88c.17.24.17.5 0 .79-.53.93.32 2.45.88 3.28.41.61.93 1.24 1.46 1.78.07-.09.14-.17.22-.26-.5-.5-.99-1.09-1.4-1.7-.88-1.3-1.19-2.37-.87-2.93.3-.52.15-.92-.02-1.15-.62-.84-2.72-1.23-4.62-1.22-.09.11-.17.22-.26.33 1.91-.05 4.07.34 4.61 1.08zM166.92 172.17c.04-.1.09-.2.13-.29-1.11-.21-2.04-.59-2.5-1.2-.36-.47-.42-1.05-.17-1.74.58-1.59 2.99-2.92 5.11-4.01.04-.14.08-.29.11-.43-2.33 1.19-4.89 2.55-5.53 4.33-.29.8-.22 1.49.22 2.06.52.67 1.52 1.06 2.63 1.28zM116.9 161.43c-.15.5-.26.85-.19 1.07-.67.44-1.49.81-2.29.96 0 .11 0 .23.01.34.95-.17 1.9-.63 2.59-1.11l.18-.12-.17-.14c-.06-.08.08-.56.18-.9.21-.71.5-1.67.42-2.66.18-1.32.05-2.61-.07-3.74-.25-2.4-.45-4.29 2.27-5.33 2.05-.78 4.2-.88 6.44-.86.04-.11.09-.22.13-.33-2.26-.02-4.55.07-6.68.89-2.96 1.13-2.74 3.24-2.48 5.67.12 1.17.25 2.38.07 3.7.08.95-.2 1.88-.41 2.56zM124.37 146.17c-.37-.05-.79-.11-1.25-.17-2.15-.31-4.76-.68-6.05-.3l-.12.39c1.08-.48 4.09-.05 6.13.24.46.07.89.13 1.26.17.63.08 1.7.02 2.96-.11.05-.11.1-.23.15-.35-1.31.14-2.43.21-3.08.13zM114.57 159.21c-.03.1-.07.21-.11.32l-.03.71c.21-.3.38-.65.46-.95.19-.75.13-2.31.07-3.96-.01-.23-.02-.46-.02-.69-.1.69-.19 1.37-.26 2.07.02 1.06.01 2.01-.11 2.5zM118.23 142.73c-.04.1-.09.2-.14.31.23.03.47.07.71.15 2.5.83 3.33.83 5.55.83v-.33c-2.18 0-3 0-5.45-.82-.22-.07-.44-.11-.67-.14zM128.09 143.38l-.19.03.05.33.19-.03c.16-.03.34-.06.54-.09.07-.13.15-.25.22-.37-.31.05-.58.1-.81.13zM135.66 135.45a.47.47 0 01.29-.24c.25-.08.56-.13.92-.15.2-.11.4-.23.6-.33-.65-.02-1.22.04-1.62.17-.23.08-.39.21-.48.41-.1.21-.1.47-.07.77.1-.07.2-.15.3-.22-.01-.16.01-.3.06-.41zM119.65 139.77c.37-.33.63-.76.72-1.29-.25.42-.48.85-.72 1.29zM128.25 138.79c-.41-.77-.83-1.57-1.63-1.96-1.13-.57-3.49-.88-5.07-.25-.12.18-.24.36-.36.55.05-.03.1-.07.16-.11 1.44-.78 4-.46 5.13.11.7.35 1.1 1.1 1.48 1.82.49.92 1 1.88 2.14 2.04.1.01.19 0 .29 0 .08-.11.16-.22.24-.32-.16.02-.32.02-.48 0-.97-.14-1.42-.99-1.9-1.88z"/><path class="st0" d="M127.23 131.4c-.55 1.11 1.07 2.33 2.65 3.52.98.74 1.99 1.5 2.31 2.13.23.46.29 1.01.22 1.54.11-.12.23-.23.34-.35.01-.47-.07-.94-.27-1.34-.35-.7-1.35-1.45-2.4-2.24-1.4-1.05-2.98-2.24-2.55-3.11.73-1.45 11.65-.27 14.66.63.65.2 1.31.42 1.95.69.24-.01.49-.03.73-.03-.87-.43-1.76-.73-2.58-.97-2.46-.73-14.14-2.32-15.06-.47zM125.07 134.48c.27-.14.36-.5.27-1.1-.07-.47-.06-1.04.05-1.6-.13.14-.26.29-.39.43-.04.43-.03.85.02 1.22.06.42.02.7-.09.76-.15.08-.52-.07-1.15-.58-.07.08-.14.17-.21.25 1.03.83 1.37.68 1.5.62zM129.57 128.89c.53.04 1.18.09 1.91.15l.03-.33c-.74-.06-1.39-.11-1.92-.15-.21-.02-.4 0-.59.01l-.42.33c.31-.03.64-.03.99-.01zM146.72 131.61c-1.78-1.14-6.16-2.05-13-2.71l-.03.33c6.7.65 11.14 1.57 12.86 2.66.55.35 1.05.79 1.52 1.28.18.04.37.08.55.13-.58-.66-1.21-1.24-1.9-1.69zM115 169.45c1.49-.93 6.09-2.43 9.44-2.95-.01-.11-.03-.21-.05-.32-3.33.51-7.79 1.95-9.44 2.91.02.13.03.25.05.36zM114.52 165.26l.03.35c2.9-1.18 4.76-2.26 5.02-3.85l-.33-.05c-.24 1.41-2.05 2.45-4.72 3.55zM120.09 164.12c-.5.83-2.89 1.97-4.81 2.88-.2.09-.39.19-.58.28.01.11.03.23.05.34.22-.11.45-.21.68-.32 2.06-.98 4.4-2.09 4.95-3.01.46-.77 2.08-1.37 3.78-1.74 0-.11-.01-.22-.01-.33-1.79.38-3.54 1.02-4.06 1.9zM123.41 153.18c-.12-.75-.59-.9-.85-.93-.85-.09-2.15.92-2.76 2.55-.61 1.64-.48 2.83-.37 3.88.04.39.08.76.08 1.12h.33c0-.38-.04-.76-.08-1.16-.11-1.02-.24-2.17.35-3.73.55-1.46 1.69-2.4 2.42-2.33.3.03.49.25.56.65.1.6-.12 1.51-.33 2.39-.28 1.17-.54 2.28-.15 2.86.14.21.34.33.62.38l.23.04c.28.05.53.09.78.12l.03-.33c-.24-.03-.48-.07-.75-.12l-.23-.04a.573.573 0 01-.4-.24c-.31-.47-.05-1.55.2-2.6.21-.9.44-1.85.32-2.51zM138.49 124.35c.03.34-.06.62-.27.86-.82.91-3.31 1.05-5.66 1.08-.2.11-.41.22-.61.34 2.68-.02 5.53-.1 6.52-1.2.28-.31.4-.68.35-1.11-.01-.14-.06-.3-.09-.45l-.32.09c.02.12.07.27.08.39zM147.88 124.33c-.07-.67-.15-1.43-.27-2.23-.14-.95-.55-1.89-1.23-2.78l-.26.2c.65.84 1.04 1.73 1.17 2.62.11.8.19 1.52.26 2.22.28 2.59.47 4.47 2.29 5.6l.17-.28c-1.67-1.04-1.85-2.75-2.13-5.35zM151.19 130.77c1.07 1.07 2.15 3.23 2.15 4.28 0 .12-.01.25-.02.38.1.07.21.13.31.21.02-.2.04-.39.04-.58 0-1.14-1.11-3.38-2.25-4.52l-.23.23z"/><path class="st0" d="M149.43 124.36c.05-.48.12-1.03.12-1.68 0-1.62-.18-3.54-.62-5.24-.12-.05-.25-.1-.37-.14.47 1.71.66 3.7.66 5.37 0 .64-.06 1.17-.11 1.65-.18 1.57-.28 2.52 2.11 4.26l.19-.27c-2.25-1.62-2.16-2.4-1.98-3.95zM154.36 123.62l-.07.32c.73.16 1.44.23 2.11.23.36 0 .7-.02 1.04-.06l-.3-.3c-.86.06-1.8.03-2.78-.19zM150.59 119.1c0 1.99.85 3.68 2.28 4.54l.17-.28c-1.33-.8-2.12-2.39-2.12-4.26 0-.17-.02-.38-.05-.6-.13-.08-.25-.16-.37-.23.05.33.09.61.09.83zM155.71 182.95c.52.25 1.37.64 2.46 1.07.09-.08.19-.16.29-.24-1.46-.58-2.5-1.07-2.95-1.3l-.15.29c.09.05.21.11.35.18zM131.76 190.44c-.05.01-.1.01-.14.02.36.1.72.19 1.09.27 1.61-.01 4.25.18 6.85.54.46-.02.93-.06 1.41-.11-3.61-.59-7.68-.87-9.21-.72zM145.27 189.61c-.27-.02-.65-.06-1.12-.1-7.77-.69-13.35-.97-16.94-.83.19.1.38.21.57.3 4.33-.09 10.67.35 16.35.85.47.04.85.08 1.12.1.33.03.65.14.97.29.15-.04.3-.09.45-.13-.45-.26-.92-.44-1.4-.48zM129.57 187.19c7.32.41 17.51 1.39 19.37 2.19.13-.05.26-.09.39-.13-2.13-1.35-19.55-2.37-19.74-2.38-2.08-.12-3.53.05-4.68.37.12.09.24.17.36.25 1.08-.27 2.43-.4 4.3-.3zM119.3 176.75c.44.83 1.49 1.29 3.12 1.37 5.72.27 6.75 1.34 7 2.35.15.61 1.29.8 2.36.8.38 0 .75-.02 1.06-.06.43-.05.8-.13 1.12-.23-.19-.06-.39-.13-.57-.2-.18.04-.38.07-.59.1-1.49.18-2.95-.05-3.06-.49-.3-1.18-1.39-2.32-7.3-2.6-1.5-.07-2.46-.47-2.84-1.19-.73-1.37.68-3.71 1.52-5.11.13-.22.25-.42.35-.6.58-1.01 1.57-1.22 2.16-1.34.34-.07.56-.12.61-.31.04-.17-.1-.31-.34-.49-.59-.44-2.19.07-3.09.41-1.84.7-4.67 2.23-4.87 3.26-.1.52.07.93.24 1.32.18.41.34.81.23 1.34.06.17.13.32.19.49.35-.85.12-1.43-.11-1.96-.17-.38-.31-.71-.22-1.13.04-.17.2-.4.46-.64.79-.74 2.48-1.71 4.2-2.37 1.03-.39 1.76-.55 2.22-.56.28-.01.46.03.55.1.09.06.14.11.17.14-.08.02-.2.05-.31.07-.6.12-1.73.36-2.38 1.5l-.35.59c-.93 1.56-2.35 3.91-1.53 5.44zM155.82 178.94l-.23.23c1.12 1.12 2.58 2.2 4.34 3.22l.24-.24c-1.77-1.02-3.24-2.1-4.35-3.21zM148.19 179.82c.45-.05.81-.38 1.06-.98.08-.18.13-.35.18-.53-.15.09-.29.19-.44.28-.02.04-.02.08-.04.12-.21.48-.47.74-.8.78-.19.02-.4-.03-.6-.13-.12.06-.24.12-.36.17.28.17.58.29.87.29.05.01.09.01.13 0z"/><path class="st0" d="M151.19 177.07c.12.41.53.78.99 1.15.9.75 1.46 1.3.91 2.11-1.02 1.53-5.3 2.69-6.94 1.87-1.55-.78-1.85-1.3-1.85-1.3l-.29.15c.03.06.35.62 2 1.45.42.21.98.3 1.61.3 2.07 0 4.9-1.01 5.75-2.28.75-1.12-.21-1.91-.98-2.55-.47-.39-.92-.76-.92-1.12-.09.08-.19.15-.28.22zM152.17 176.24c-.1.09-.21.19-.32.28.59.04 1.77.69 2.9 1.82l.23-.23c-.97-.98-2.04-1.68-2.81-1.87zM122.02 180.15c-.49-.19-1.52.29-2.66 1.07.06.09.1.18.16.26 1.05-.73 1.97-1.18 2.39-1.02.12.05.15.21.09.48l-.08.36c-.21.94-.42 1.89-.52 2.7l.3.33c.08-.9.33-2.02.54-2.96l.08-.36c.12-.57-.1-.78-.3-.86zM131.47 184.44l.05-.33c-3.35-.56-7.01.86-8.56 1.52l.27.24c1.62-.66 5.09-1.95 8.24-1.43zM156 185.72c-.29-.08-.57-.16-.8-.22l-.09.32c.16.05.34.1.53.15.12-.09.24-.17.36-.25zM146.32 186.91c1.17.47 2.17.87 2.82.87.24 0 .43-.05.57-.18.24-.22.27-.6.1-1.17-.08-.28-.03-.5.16-.68.53-.52 2-.61 3.2-.21l.1-.31c-1.16-.39-2.84-.39-3.54.29-.28.27-.36.62-.25 1.02.09.3.16.68-.01.83-.36.32-1.72-.22-3.04-.75-1.08-.43-2.31-.92-3.37-1.12-3.03-.55-6.59-.83-7.73-.83v.33c1.1 0 4.7.28 7.67.82 1.04.18 2.26.67 3.32 1.09z"/><path class="st0" d="M136.39 182.51l.13-.3c-1.34-.57-5.68-.02-9.16.43-1.58.2-2.94.38-3.56.38-.25 0-.33-.04-.35-.03.03-.15.54-.57.92-.88.84-.69 1.8-1.48 1.8-2.22 0-.17-.07-.32-.2-.44-.59-.55-2.42-.47-4.74-.31-.93.06-1.81.13-2.05.05-.21-.07-.37-.29-.53-.51-.21-.29-.43-.6-.8-.61a.85.85 0 00-.22.04l.15.3c.02 0 .04-.01.06-.01.21.01.37.23.55.48.18.25.38.53.69.64.29.09.98.05 2.18-.03 1.67-.12 3.95-.28 4.49.22.06.06.09.12.09.2 0 .58-.97 1.38-1.68 1.97-.76.63-1.13.95-1.02 1.24.08.23.4.26.66.26.64 0 2.01-.18 3.6-.38 3.26-.46 7.73-1.04 8.99-.49zM143.02 183.61c1.19.25 2.54.54 4.13.83.23.04.47.06.69.06 1.3 0 2.5-.63 3.58-1.2 1.27-.67 2.36-1.25 3.39-.8l.13-.3c-1.17-.51-2.39.13-3.67.81-1.28.67-2.6 1.37-4.06 1.11-1.59-.29-2.93-.57-4.12-.83-1.06-.22-1.97-.42-2.76-.55-1.64-.27-2.47-.28-2.5-.28v.33c.01 0 .83 0 2.45.27.77.14 1.69.33 2.74.55zM121.95 172.26c-.05.12-.08.31.06.55.63 1.05 3.47 3.06 6.15 3.98-.13-.17-.26-.32-.38-.5-2.43-.95-4.92-2.7-5.49-3.65-.08-.13-.06-.21-.04-.25.18-.41 1.46-.7 2.71-.97.17-.04.34-.08.52-.12-.03-.1-.06-.21-.09-.32-.17.04-.33.08-.5.11-1.45.33-2.7.61-2.94 1.17z"/></g><path class="st0" d="M357.4 160.86c-.2 0-.39-.01-.59-.04-1.48-.18-2.19-.33-2.66-.44-.08.01-.58.08-1.57.21-2.64.31-5.12-1.57-5.45-4.25a4.893 4.893 0 014.25-5.45c2.57-.32 3.26-.4 4.84-.05.31.07.78.16 1.76.28 2.68.32 4.59 2.76 4.27 5.44a4.89 4.89 0 01-4.85 4.3z"/></svg>